<?xml version="1.0" encoding="utf-8"?>
<!-- Generator: Adobe Illustrator 25.4.1, SVG Export Plug-In . SVG Version: 6.00 Build 0)  -->
<svg version="1.1" id="圖層_1" xmlns="http://www.w3.org/2000/svg" xmlns:xlink="http://www.w3.org/1999/xlink" x="0px" y="0px"
	 viewBox="0 0 427.56 144.89" style="enable-background:new 0 0 427.56 144.89;" xml:space="preserve">
<g>
	<path d="M200.5,44.95c-1.26,0.1-2.53,0.21-4.37,0.36c4.23,1.61,6.36,0.35,6.49-3.37c0.04-1.16-0.36-2.34-0.57-3.5
		c-0.31-1.75-1.38-1.88-2.83-1.4c-0.54,0.18-1.16,0.1-1.75,0.14c0.18-0.72,0.15-1.63,0.59-2.13c1.46-1.67,4.14-1.7,5.78-0.05
		c0.96,0.97,1.66,2.2,2.48,3.31c0,1.66,0,3.32,0,4.98c-2.12,1.54-4.1,3.34-6.39,4.54c-2.74,1.42-6.49,0.16-8.5-2.29
		c1.49-0.75,2.94-1.69,4.53-2.22C197.7,42.74,199.18,43.69,200.5,44.95z"/>
	<path d="M86.81,50.89c10.68,1.99,21.43,1.79,32.19,1.29c0.94-0.04,1.91-0.79,2.76-1.36c3.19-2.16,6.32-4.4,9.49-6.58
		c0.59-0.4,1.29-0.63,2.3-0.57c-0.6,0.64-1.14,1.36-1.82,1.89c-2.07,1.61-4.27,3.04-6.28,4.72c-2.86,2.41-3.28,4.38-0.66,7.06
		c3,3.07,6.53,5.65,10,8.2c1.21,0.89,2.17,1.51,1.82,3.14c-0.08,0.35-0.08,0.82,0.09,1.11c0.31,0.54,0.78,1,1.19,1.49
		c0.45-0.44,1-0.82,1.32-1.34c0.25-0.41,0.21-0.99,0.31-1.54c1.64,1.14,3.21,2.21,4.77,3.29c0.29-0.29,0.59-0.59,0.88-0.88
		c-0.95-1.24-1.91-2.48-2.99-3.89c2.74-0.35,5.19,2.33,7.89,0.99c0.08-0.26,0.16-0.51,0.24-0.77c-2.57-1.1-5.14-2.19-7.91-3.37
		c1.29-0.62,2.29-1.11,3.3-1.59c-0.03-0.29-0.05-0.57-0.08-0.86c-0.89-0.07-1.84-0.39-2.66-0.17c-2.22,0.59-4.11,0.82-5.72-1.43
		c-1.27-1.77-2.98-3.22-4.49-4.81c0.05-0.29,0.09-0.58,0.14-0.87c2.93-0.89,5.85-1.82,8.79-2.65c3.59-1.02,7.18-2.07,10.82-2.88
		c3.06-0.68,6.18-1.22,9.31-1.5c8.24-0.74,16.51-1.18,24.73-2.03c2.47-0.26,4.93-1.27,7.24-2.28c2.57-1.12,2.87-2.91,0.86-4.95
		c-2.15-2.19-4.45-4.25-6.88-6.12c-2.99-2.31-5.97-4.79-9.33-6.42c-5.34-2.6-11.25-3.08-17.15-2.79c-3.6,0.18-7.18,0.64-10.76,1.07
		c-4.49,0.54-8.53-0.92-12.39-2.66c-2.74,4.7-5.52,9.26-8.06,13.95c-1.08,2-1.64,4.29-2.49,6.42c-0.17,0.44-0.6,0.77-0.91,1.15
		c-0.36-0.3-0.87-0.53-1.04-0.91c-1.62-3.55-0.88-6.95,0.63-10.36c1.53-3.44,3.73-6.63,3.88-10.62c0.06-1.6-0.04-2.38-1.95-2.66
		c-3.38-0.48-6.69-1.41-10.08-2.16c-3.79,9.18-6.63,18.17-7.83,27.65c-0.12,0.96-1.28,1.78-1.96,2.67c-0.5-0.91-1.4-1.8-1.45-2.72
		c-0.38-7.93,0.44-15.76,2.45-23.46c0.43-1.64,0.74-3.3,1.17-5.22c-4.95,0-9.64,0-14.59,0c-0.29,4.67-0.45,9.32-0.89,13.94
		c-0.45,4.78-1.11,9.54-1.84,14.29c-0.1,0.65-1.07,1.53-1.73,1.62c-0.58,0.08-1.67-0.68-1.87-1.29c-0.49-1.47-0.71-3.05-0.83-4.61
		c-0.54-6.98-0.99-13.96-1.5-20.94c-0.04-0.57-0.3-1.13-0.6-2.21c-6.82,1.86-13.51,3.69-20.77,5.67
		c7.28,6.57,13.62,12.86,12.79,22.92c-0.11,1.37-1.02,2.67-1.55,4c-0.33,0-0.66,0-0.99-0.01c-0.58-1.84-1.02-3.74-1.76-5.51
		c-1.08-2.57-1.91-5.47-3.7-7.47c-3.11-3.5-6.83-6.46-10.38-9.56c-0.43-0.38-1.52-0.46-2.06-0.18c-4.74,2.43-8.81,5.74-12.54,9.57
		c3.44,1.06,6.79,1.82,9.9,3.13c5.08,2.14,8.75,5.84,10.63,11.15c1.15,3.25,4.81,4.49,8.84,3.08C78.87,50.8,82.83,50.15,86.81,50.89
		z M173.62,33.22c3.3,0.71,6.18,1.33,9.05,1.94c0.06,0.26,0.12,0.52,0.18,0.78c-1.65,0.54-3.35,1.65-4.92,1.48
		C176.01,37.22,174.66,35.51,173.62,33.22z M137.98,35.34c0.59-0.53,1.38-1.09,2.13-1.15c5.71-0.45,11.43-0.79,17.05-1.15
		c0.32,1.53,0.5,2.39,0.72,3.44c-4.34,1.09-8.65,1.78-12.65,3.29c-3.73,1.4-5.34-1.06-7.39-2.97
		C137.6,36.58,137.7,35.59,137.98,35.34z"/>
	<path d="M61.18,50.47c0.24,0.45,0.11,1.44-0.24,1.79c-1.44,1.44-3.03,2.72-4.64,4.13c-5.1-3.12-13.94-3.51-20.76,0.44
		c-0.07-0.31-0.22-0.59-0.17-0.84c1.06-5.22,2.89-10.16,5.53-14.78c0.2-0.36,0.83-0.6,1.3-0.66C49.35,39.61,57.81,44.01,61.18,50.47
		z"/>
	<path d="M59.1,67.96c-0.1-2.68,0.01-5.39-0.34-8.03c-0.6-4.54,5.48-7.14,9.27-5.3c3.16,1.53,4.59,4.53,6.27,7.34
		c1.65,2.76,0.82,4.61-1.21,6.55c-0.26,0.25-0.42,0.62-0.71,1.05c4.95-0.12,6.67,1.01,6.13,4.06c-1.99-0.82-3.91-2.27-6.31-1.03
		c1.1,0.98,2.11,1.88,3.12,2.78c-0.18,0.31-0.36,0.63-0.54,0.94c-1.01-0.34-2.05-0.59-3.01-1.02c-1.94-0.88-3.77-2.09-5.78-2.75
		c-1.68-0.55-2.16-1.43-1.85-2.97c0.3-1.5,0.67-3,1.11-4.96c-2.04,1.37-3.72,2.5-5.39,3.63C59.6,68.15,59.35,68.06,59.1,67.96z"/>
	<path d="M35.55,63.28c5.23-3.74,12.96-5.56,19.14-1.82c0.55,0.33,1.3,0.84,1.37,1.35c0.39,2.86,0.6,5.75,0.88,8.77
		c-7.65-2.71-14.37-1.48-20.49,4.95c-0.61-4.34-1.14-7.8-1.53-11.28C34.83,64.6,35.09,63.61,35.55,63.28z"/>
	<path d="M54.08,75.98c4.12,0.54,7.26,3.6,8.03,7.6c-6.94-0.33-11.86,2.91-15.68,9.53c-2.62-3.99-4.97-7.49-7.2-11.06
		c-0.2-0.32,0.15-1.29,0.53-1.64C43.86,76.79,48.66,75.26,54.08,75.98z"/>
	<path d="M63.71,86.82c0.77-0.17,1.81,0.02,2.5,0.43c1.83,1.09,3.53,2.39,5.12,3.49c-2.29,3.88-4.61,7.8-7.12,12.06
		c-4.2-1.25-8.48-3.18-12.46-5.85c-1.32-0.88-1.28-1.46-0.39-2.63C54.49,90.17,58.77,87.93,63.71,86.82z"/>
	<path d="M76.54,93.85c0.3-0.44,1.33-0.74,1.88-0.59c3.44,0.9,6.85,1.95,10.26,2.95c-1.11,3.12-2.18,6.24-3.35,9.33
		c-0.13,0.35-0.81,0.75-1.19,0.7c-4.09-0.47-8.17-1.04-12.25-1.56c-1.23-0.16-1.65-0.97-1.1-1.89
		C72.6,99.75,74.53,96.77,76.54,93.85z"/>
	<path d="M110.25,102.03c11.6,4.72,17.92,15.94,16.89,21.77c-0.29-0.42-0.56-0.76-0.78-1.12c-4.08-6.73-9.79-11.35-17.38-13.59
		c-0.51-0.15-1.25-1.17-1.13-1.52C108.5,105.71,109.39,103.94,110.25,102.03z"/>
	<path d="M94,98.05c0.51-0.63,2.84,0.21,4.33,0.37c0.22,0.02,0.46,0,0.67,0.06c1.84,0.52,3.67,1.06,5.53,1.6
		c-0.59,2.27-1.14,4.05-1.49,5.87c-0.23,1.17-0.69,1.71-1.94,1.58c-3.5-0.35-7-0.63-10.57-0.94c0-0.78-0.19-1.45,0.03-1.93
		C91.6,102.39,92.47,99.94,94,98.05z"/>
	<path d="M25.39,58.1c1.28-0.74,2.09-1.21,2.92-1.69c-0.16-0.78-0.36-1.43-0.43-2.1c-0.28-2.66-0.67-5.32-0.72-7.98
		c-0.04-2.18,1.37-3.28,3.53-3.11c2.06,0.16,4.11,0.53,6.07,0.79c-1.2,3.61-2.29,6.86-3.38,10.15c-0.81-0.5-1.49-0.91-2.62-1.6
		c0.79,1.95,1.4,3.3,1.89,4.69c0.81,2.3-0.1,3.43-2.52,3.08c-1.53-0.22-3.02-0.66-4.57-1.01C24.8,58.71,25.39,58.1,25.39,58.1z"/>
</g>
<g>
	<path d="M191.29,92.19v0.59c-0.79,0.91-1.19,1.72-1.19,2.44c-0.2,0-0.3,0.14-0.3,0.42c0.04,0.12,0.07,0.24,0.09,0.36
		c0.02,0.12,0.05,0.24,0.09,0.36c0.08,0.12,0.04,0.18-0.12,0.18l0.12,0.18l-0.12,0.53l-0.06-0.06l-0.12,0.12
		c-0.08-0.04-0.18-0.06-0.3-0.06l-0.12,0.18v0.06c0.16,0,0.3,0.12,0.42,0.36l-0.18,0.12c0-0.08-0.02-0.12-0.06-0.12
		c0,0.12-0.04,0.18-0.12,0.18v0.18l0.54-0.12v0.12l-0.18,1.07l0.06,0.12v0.65l0.06,0.18l-0.18,0.42h-0.18l-0.06,0.06v0.18
		c0.2,0,0.3,0.14,0.3,0.42l-0.12,0.3l0.06-0.06v0.18l0.06,1.07c-0.04,0.04-0.08,0.11-0.12,0.21c-0.04,0.1-0.06,0.25-0.06,0.45
		c0.12,0,0.18,0.06,0.18,0.18l-0.12,0.18l0.18,0.18l-0.18,0.3l0.06,0.18c0,0.12-0.02,0.18-0.06,0.18l0.24,1.13
		c-0.04,0.24-0.06,0.65-0.06,1.25c0,0.2-0.02,0.3-0.06,0.3l0.06,0.12l-0.12,1.13l0.06,0.12c0,0.12-0.02,0.18-0.06,0.18l0.06,0.77
		c0.04,0.16,0.06,0.71,0.06,1.66l0.06,1.72c0,0.04,0.02,0.06,0.06,0.06c-0.04,0.91-0.06,1.94-0.06,3.09c-0.04,0-0.12,0.1-0.24,0.3
		c0.04,0,0.14,0.04,0.3,0.12c-0.04,0.16-0.06,0.34-0.06,0.53l0.06,0.36c0,0.63-0.04,0.99-0.12,1.07c0.08,0.08,0.12,0.16,0.12,0.24
		c0,0.91-0.1,1.37-0.3,1.37v0.12l0.18-0.06c0.08,0,0.12,0.04,0.12,0.12v0.77l0.06,0.54c0,0.16-0.02,0.24-0.06,0.24l0.06,0.12
		c0,1.39-0.06,2.08-0.18,2.08l0.06,0.18v0.24c0,0.12,0.02,0.18,0.06,0.18c0,0.55-0.18,0.97-0.54,1.25
		c-0.51,0.91-0.97,1.39-1.37,1.43v-0.18l0.12-0.3v-0.06c-1.66-0.4-2.5-0.67-2.5-0.83c-0.47-0.24-0.95-0.4-1.43-0.48
		c-0.28-0.4-0.44-0.57-0.47-0.53c-0.04,0.04-0.14-0.08-0.3-0.36c-0.2,0-0.34-0.14-0.42-0.42c-0.52,0-0.89-0.5-1.13-1.49l0.06-0.12
		c-0.08-0.04-0.18-0.36-0.3-0.95c-0.12,0-1.7-1.41-4.75-4.22l-1.13-0.53c0-0.04-0.18-0.14-0.53-0.3s-0.63-0.28-0.83-0.36
		c0-0.04-0.32-0.26-0.95-0.65c0-0.16-0.48-0.43-1.43-0.83c0-0.12-0.32-0.32-0.95-0.59c-1.31,0.59-1.9,1.09-1.78,1.49v0.06
		c0,0.28-0.22,0.42-0.65,0.42v-0.48l-0.3,0.3c-0.28-0.12-0.52-0.18-0.71-0.18c-0.08,0-0.16,0.06-0.24,0.18
		c-1.15-0.04-1.72-0.26-1.72-0.65l-0.18,0.12c-0.32,0-0.48-0.08-0.48-0.24l-0.06,0.06c-0.75,0.08-1.15-0.42-1.19-1.48l0.42-3.03
		c0-0.08-0.04-0.12-0.12-0.12v-0.42v-0.77c0-0.59,0.04-0.89,0.12-0.89l-0.18-0.24c-0.08-0.83-0.06-1.25,0.06-1.25l-0.12-0.18
		l-0.06-0.77l0.06-0.53l-0.12-0.3h0.12c0-0.04-0.02-0.14-0.06-0.3c-0.04-0.16-0.1-0.43-0.18-0.83l0.06-0.36
		c-0.04-0.16-0.06-0.4-0.06-0.71c0-0.08-0.02-0.12-0.06-0.12c0-0.95,0.4-1.45,1.19-1.49h0.3c0.59,0,0.99,0.14,1.19,0.42
		c0.2,0,0.42,0.1,0.65,0.3c0.2,0.08,0.4,0.24,0.59,0.48l2.2-1.13l0.24,0.06c0.16-0.24,0.51-0.46,1.07-0.65
		c-0.04-0.2,0.34-0.36,1.13-0.47h0.06v-0.24h0.36l0.06,0.18l-0.3,0.36h0.06l1.49-0.77c0.16,0.08,0.32,0.12,0.48,0.12
		c-0.04-0.2,0.06-0.34,0.3-0.42l0.18,0.06l0.18-0.71l-0.18-0.54c0-0.08,0.03-0.15,0.09-0.21c0.06-0.06,0.15-0.09,0.27-0.09h0.18
		c0.2,0,0.38,0.08,0.53,0.24c0.08,0,0.32-0.12,0.71-0.36l0.24,0.06l0.06-0.06h0.42c0.12,0.08,0.24,0.12,0.36,0.12
		c0.04-0.04,0.06-0.08,0.06-0.12c0.36,0.04,0.65,0.09,0.89,0.15s0.36,0.15,0.36,0.27c0.75,0.2,1.25,0.59,1.49,1.19
		c0.16,0.24,0.32,0.67,0.47,1.31h-0.06l0.06,0.18c0,0.28-0.4,0.5-1.19,0.65c-0.12,0-0.22,0.91-0.3,2.73h-0.12l0.12,0.3l-0.18,0.3
		c0.04,0.04,0.06,0.09,0.06,0.15s0.02,0.11,0.06,0.15l-0.06,0.18l0.06,0.06c-0.04,0.32-0.06,0.87-0.06,1.66l-0.06,0.18
		c0.08,0,0.14,0.06,0.18,0.18l-0.18,0.24l0.12,0.59c-0.08,0-0.12,0.06-0.12,0.18v0.42l0.18,0.18c0,0.12-0.08,0.2-0.24,0.24
		c0,0.08,0.02,0.12,0.06,0.12l-0.12,0.71l0.06,0.18v0.89l0.06,0.06l-0.18,0.53h0.18v0.3c0,0.04-0.06,0.1-0.18,0.18l0.12,0.12
		l-0.06,0.53l0.12,0.3l-0.12,0.3l0.12,0.42c0,0.16-0.01,0.35-0.03,0.56c-0.02,0.22-0.01,0.43,0.03,0.62l0.12,0.3l-0.65,1.78
		c1.82,1.39,3.01,2.22,3.56,2.5l0.18-0.06c0.04-0.08,0.06-0.28,0.06-0.59c0.32,0,0.44-0.06,0.36-0.18h-0.18
		c-0.04-0.16,0.02-0.24,0.18-0.24c-0.08-0.28-0.18-0.38-0.3-0.3v-0.3c0-0.12,0.1-0.18,0.3-0.18l-0.18-0.18
		c-0.04-0.08,0.08-0.16,0.36-0.24l-0.18-0.3h0.12l-0.12-0.12l0.06-0.83l-0.42,0.06v-0.18c0.32-0.12,0.46-0.24,0.42-0.36
		c-0.04-0.12,0.02-0.26,0.18-0.42v-0.24h-0.18c0,0.2-0.12,0.3-0.36,0.3l-0.06-0.18l0.42-0.42c-0.04-0.04-0.05-0.09-0.03-0.15
		s0.01-0.11-0.03-0.15c-0.04-0.16,0.02-0.24,0.18-0.24l-0.24-0.48v-0.12h0.12c0-0.12-0.04-0.18-0.12-0.18v0.18
		c-0.24,0-0.36-0.06-0.36-0.18c0-0.2,0.06-0.3,0.18-0.3l0.41,0.06c0-0.12-0.16-0.28-0.47-0.47v-0.12h0.42
		c0-0.12-0.16-0.18-0.47-0.18v-0.12c0.2-0.2,0.3-0.38,0.3-0.54l0.18-0.06c0-0.04-0.02-0.06-0.06-0.06
		c-0.08,0.08-0.22,0.12-0.42,0.12v-0.18c0.28-0.24,0.42-0.38,0.42-0.42l-0.3-0.12v-0.06l0.24-0.24h-0.3c0-1.27,0.04-2.1,0.12-2.5
		c0.08,0,0.2,0.04,0.36,0.12v-0.36l-0.24-0.12c0,0.08-0.04,0.12-0.12,0.12l-0.12-0.3l0.3-0.42l-0.18-0.42l0.18-0.24
		c-0.16-0.12-0.24-0.22-0.24-0.3c0.04,0,0.08-0.03,0.12-0.09c0.04-0.06,0.06-0.13,0.06-0.21l-0.18-0.12
		c0.24-0.08,0.38-0.12,0.41-0.12v-0.06h-0.24v-0.12c0.04-0.2,0.1-0.3,0.18-0.3l-0.12-0.54l0.12-0.12h-0.3v-0.53
		c0.2,0,0.3-0.1,0.3-0.3h-0.3v-0.3c0-0.12,0.08-0.18,0.24-0.18l0.36-0.06v-0.3h-0.36v-0.71c0.24-0.08,0.36-0.3,0.36-0.65
		c-0.2,0-0.3-0.1-0.3-0.3l0.06-0.24l-0.12-0.24l0.42-0.59h0.06v-0.18l-0.3-0.12V99.8h0.42l-0.36-0.47l-0.06-0.3
		c0-0.12,0.08-0.18,0.24-0.18l-0.24-0.3v-0.18l0.36-0.47v-0.42h-0.24v-0.24l0.18-0.36c0,0.12,0.04,0.18,0.12,0.18
		c0-0.63,0.06-0.95,0.18-0.95l-0.12-0.47c0.08-0.08,0.12-0.14,0.12-0.18h-0.24v-0.18h0.12l-0.06-0.83h-0.12
		c0-0.08,0.04-0.12,0.12-0.12l-0.06-0.18c0-0.16,0.06-0.24,0.18-0.24v-0.18h-0.24v-0.3c0-0.16,0.08-0.26,0.24-0.3l-0.06-0.18
		c-0.08-0.75-0.16-1.25-0.24-1.49c0.08-0.08,0.12-0.26,0.12-0.54c-0.08,0-0.12-0.02-0.12-0.06c-2.34,0.91-4.46,1.86-6.36,2.85
		c-2.06,1.03-3.74,1.94-5.05,2.73c-0.71,0.52-1.23,0.83-1.54,0.95c-0.63,0.63-1.37,1.19-2.2,1.66c-1.58,1.47-2.52,2.2-2.79,2.2
		c0-0.04-0.3-0.3-0.89-0.77l-0.06-0.3c-0.48,0.12-0.87,0.24-1.19,0.36c-0.32,0.12-0.46,0.24-0.42,0.36v0.06
		c0,0.16-0.3,0.38-0.89,0.65c0,0.04-0.02,0.06-0.06,0.06l0.06,0.18c-0.2,0.32-0.48,0.57-0.83,0.77c-0.32,0.28-0.56,0.55-0.71,0.83
		l0.12,0.12c-0.08,0.32-0.12,0.59-0.12,0.83l0.06,0.18c-0.04,0.59-0.12,0.89-0.24,0.89l0.18,0.06c0,0.2-0.1,0.51-0.3,0.95
		c0.08,0.08,0.12,0.16,0.12,0.24c-0.12,0-0.18,0.08-0.18,0.24l0.06,0.18l-0.18,0.65c0.08,0.08,0.12,0.16,0.12,0.24
		c-0.08,0-0.12,0.06-0.12,0.18c0,0.2,0.02,0.34,0.06,0.42v0.36c0,0.48-0.1,0.91-0.3,1.31l0.12,0.12c-0.08,0.08-0.16,0.54-0.24,1.37
		l-0.18,0.06c0,0.08,0.01,0.2,0.03,0.36c0.02,0.16,0.07,0.26,0.15,0.3c-0.16,1.31-0.28,1.96-0.36,1.96l0.06,0.24
		c-0.4,2.18-0.59,3.76-0.59,4.75c0,0.2,0.08,0.53,0.24,1.01h-0.06l0.06,0.18l-0.06,0.06c0.08,0.63,0.28,1.37,0.59,2.2
		c0,0.28-0.03,0.5-0.09,0.65c-0.06,0.16-0.15,0.26-0.27,0.3c-0.36,0.08-0.53,0.06-0.53-0.06c-0.36,0.12-0.65,0.18-0.89,0.18
		c-0.44,0-0.65-0.22-0.65-0.65c-0.08,0-0.16-0.1-0.24-0.3h0.12c-0.52-0.48-0.99-0.71-1.43-0.71c-0.04,0.04-0.16,0.06-0.36,0.06
		c0-0.04-0.28-0.18-0.83-0.42c0-0.12-0.26-0.3-0.77-0.54c-0.16-1.23-0.42-1.84-0.77-1.84c-0.08-0.24-1.05-1.29-2.91-3.15
		c-0.08-0.16-0.2-0.32-0.36-0.48c-0.04-0.16,0.06-0.28,0.3-0.36c-0.32-0.32-0.53-0.45-0.65-0.42v-0.53l-0.24-0.3v-0.12
		c0.91,0.67,1.69,1.22,2.35,1.63c0.65,0.42,1.06,0.6,1.22,0.56c0.51,0.28,1.11,0.5,1.78,0.65h0.06c0.48-2.69,0.95-6.34,1.43-10.93
		h-0.18c-0.08,0-0.28,0.24-0.59,0.71c-1.39,1.94-2.63,3.27-3.74,3.98c-0.24,0-0.42,0.12-0.53,0.36c-0.2-0.08-0.3-0.14-0.3-0.18
		l-0.77,0.65c-0.24,0.04-0.38,0.2-0.42,0.48l-0.83,0.24l0.06,0.18c-0.16,0-0.3,0.08-0.42,0.24h-0.48c0,0.28-0.12,0.42-0.36,0.42
		c0-0.08-0.02-0.12-0.06-0.12c0,0.16-0.08,0.24-0.24,0.24v-0.18h-0.06v0.18l0.06,0.12c-0.36,0.28-0.69,0.46-1.01,0.54
		c0-0.04,0.16-0.18,0.48-0.42h-0.18c-0.24,0.16-0.5,0.24-0.77,0.24v-0.3c-0.44,0.24-0.71,0.36-0.83,0.36c0-0.16,0.11-0.33,0.33-0.5
		c0.22-0.18,0.52-0.35,0.92-0.5c0-0.08,0.55-0.55,1.66-1.43l0.36-0.3c-0.12,0-0.18-0.04-0.18-0.12l-0.24,0.12l0.06,0.12
		c-0.08,0-0.81,0.54-2.2,1.6c-0.36,0.24-0.59,0.36-0.71,0.36h-0.06c0.16-0.08,0.67-0.55,1.54-1.43c1.74-1.46,3.45-3.41,5.11-5.82
		c0.44-0.63,1.31-2.18,2.61-4.63c0.95-1.39,1.5-2.16,1.66-2.32c0-0.08,0.14-0.39,0.42-0.95l-0.24-2.14l0.06-0.12
		c-0.08-0.24-0.12-0.44-0.12-0.59h-0.12c-0.32,0.2-0.48,0.34-0.48,0.42l0.06,0.3L154.93,96c-0.04-0.04-0.12-0.06-0.24-0.06
		c0,0.16-0.22,0.32-0.65,0.48l-2.73,2.61c-0.28,0.2-0.81,0.58-1.6,1.13c-0.08,0.2-0.36,0.46-0.83,0.77c-0.04,0.2-0.14,0.3-0.3,0.3
		l-0.36-0.24c0,0.08-0.1,0.18-0.3,0.3h-0.12v0.18h0.12l0.36-0.24h0.12c-0.04,0.28-0.14,0.42-0.3,0.42l-0.36-0.06
		c-0.16,0-0.4,0.14-0.71,0.42v0.12h0.36v0.12l-0.36,0.06l-0.95,0.42c0,0.16-0.28,0.4-0.83,0.71c-0.04,0.2-0.65,0.67-1.84,1.43h-0.12
		c0-0.08,0.04-0.2,0.12-0.36c-0.08,0.08-0.18,0.12-0.3,0.12c0.24-0.47,0.49-0.71,0.77-0.71c0-0.16,0.06-0.24,0.18-0.24
		c0.12,0,0.18,0.02,0.18,0.06c0.04-0.04,0.1-0.06,0.18-0.06v-0.12h-0.18v-0.06l1.9-2.2c0.12,0,0.34-0.22,0.65-0.65
		c0.16-0.04,0.36-0.24,0.59-0.59c0.32-0.55,0.57-0.83,0.77-0.83v-0.12c-1.58,1.43-2.71,2.5-3.39,3.21
		c-0.63,0.55-1.07,0.83-1.31,0.83v-0.06c0.71-0.55,2.99-2.97,6.83-7.25c1.43-1.54,2.52-2.82,3.27-3.83
		c0.75-1.01,1.13-1.63,1.13-1.87c-0.2-1.54-0.46-2.83-0.77-3.86c-0.44-0.44-0.71-0.69-0.83-0.77c0-0.2-0.36-0.81-1.07-1.84
		c-0.24,0-0.59-0.45-1.07-1.37c-0.48-0.2-0.71-0.36-0.71-0.48v-0.18c0-0.2,0.63-0.51,1.9-0.95h0.12c0.2,0,0.65,0.16,1.37,0.48
		c0.95,0.24,1.68,0.61,2.2,1.13c0.08,0,0.53,0.24,1.37,0.71c0.08,0,0.18,0.12,0.3,0.36c0.08,0,0.14-0.02,0.18-0.06
		c0.04-0.04,0.08-0.06,0.12-0.06c0,0.08,0.3,0.22,0.89,0.42c0.08-0.43,0.16-0.69,0.24-0.77c-0.04-0.08-0.06-0.2-0.06-0.36
		c0.2-0.32,0.32-0.59,0.36-0.83l0.71-1.13c0.08,0,0.12-0.08,0.12-0.24l1.49-0.06l1.01,0.71c0,0.12,0.2,0.24,0.59,0.36
		c0,0.28,0.24,0.63,0.71,1.07c0.12,0.16,0.34,0.38,0.65,0.65c0.24,0.79,0.53,1.39,0.89,1.78c0.12,1.23,0.24,1.84,0.36,1.84v0.18
		c0,0.75-0.75,1.39-2.26,1.9c-0.63,0.56-1.58,1.72-2.85,3.51c-0.12,0-0.34,0.22-0.65,0.65l-0.18,0.06l0.06,0.18l0.12,1.72
		c0.08,0.79,0.16,1.33,0.24,1.6l-0.06,0.06l0.06,0.36c0.04,0.28,0.04,0.48,0,0.59l0.06,0.12l-0.06,0.48l0.3-0.18
		c0.12,0,0.18,0.06,0.18,0.18c-0.12,0-0.18,0.08-0.18,0.24h0.42c0-0.12,0.26-0.43,0.77-0.95c0.51-0.87,0.77-1.35,0.77-1.43h0.12
		l-0.12-0.24v-0.06c0.32,0,0.53-0.2,0.65-0.59h0.12v-0.18l-0.18,0.06v0.12l-0.48,0.06v-0.18c0.12,0,0.28-0.1,0.48-0.3v-0.18
		c0.08,0,0.12,0.06,0.12,0.18c0.12-0.04,0.22-0.18,0.3-0.42c-0.08,0-0.12-0.08-0.12-0.24h0.12l-0.06-0.18l-0.18-0.06l-0.3,0.53
		c-0.16,0.12-0.3,0.18-0.42,0.18l0.06,0.48l-0.18,0.18h-0.18v-0.18c0.12-0.4,0.28-0.65,0.48-0.77c0.04-0.12,0.13-0.31,0.27-0.56
		c0.14-0.26,0.29-0.56,0.45-0.92c0.24-0.32,0.48-0.83,0.71-1.54c0.12,0,0.18-0.18,0.18-0.54c0.12,0,0.34-0.42,0.65-1.25l1.01-1.72
		c0.63-1.54,1.11-2.85,1.43-3.92c0.44-1.15,0.81-2.71,1.13-4.69l0.12-0.12l-0.06-0.12c0.2-0.24,0.3-0.5,0.3-0.77
		c-0.08-0.08-0.12-0.14-0.12-0.18c0.12,0,0.24-0.32,0.36-0.95h0.06c0.24,0.24,0.38,0.36,0.42,0.36v-0.06
		c-0.16-0.48-0.24-0.83-0.24-1.07l0.65-0.06v-0.12l-0.12-0.24l0.3-0.18h0.06c0.16,0.04,0.69,0.62,1.6,1.72
		c0.32-0.04,0.77,0.57,1.37,1.84c0.12,0.48,0.42,0.87,0.89,1.19c0,0.12,0.16,0.65,0.48,1.6c0,0.2-0.14,0.52-0.42,0.95
		c-0.63,0.67-1.13,1.76-1.49,3.27c-0.75,2.18-1.33,3.47-1.72,3.86h-0.18v-0.06l0.89-2.32h-0.24c-0.67,1.35-1.01,2.12-1.01,2.32
		l-1.49,2.61c0,0.16-0.48,0.93-1.43,2.32c-0.08,0.12-0.17,0.25-0.27,0.39c-0.1,0.14-0.15,0.23-0.15,0.27
		c-0.24,0.04-0.48,0.34-0.71,0.89c-0.08,0-0.18,0.12-0.3,0.36c0.24,0,0.73-0.55,1.49-1.66c0.55,0,0.83,0.12,0.83,0.36
		c1.54-0.91,3.21-1.76,4.99-2.55c0-0.12,0.69-0.51,2.08-1.19c0.24-0.16,0.63-0.36,1.19-0.59c0-0.2,0.36-0.38,1.07-0.53
		c0.08-0.08,0.99-0.54,2.73-1.37c0.83-0.28,1.62-0.79,2.38-1.54l0.3,0.18c0.28-0.87,0.51-1.31,0.71-1.31
		c0.2,0.08,0.39,0.12,0.59,0.12c0-0.2,0.04-0.3,0.12-0.3c0.16,0.16,0.47,0.24,0.95,0.24c0.04,0,0.06-0.02,0.06-0.06h0.12
		c0.24,0,0.63,0.16,1.19,0.47h0.18c0.32,0,0.57,0.14,0.77,0.42l0.83,0.54l-0.12,0.18c0.08,0,0.28,0.2,0.59,0.59
		c0.59,0.36,1.19,1.11,1.78,2.26c0.08,0,0.18,0.32,0.3,0.95c0,0.12-0.02,0.18-0.06,0.18L191.29,92.19z M143.59,114.59
		c-0.16,0-0.24-0.06-0.24-0.18h0.24V114.59z M143.82,104.08c-0.08,0-0.18,0.1-0.3,0.3C143.72,104.25,143.82,104.15,143.82,104.08z
		 M144.48,114.23l0.18-0.06v0.06c-0.48,0.48-0.83,0.71-1.07,0.71c0-0.2,0.26-0.38,0.77-0.53v-0.12h-0.48v-0.24l0.12,0.06
		c0.16-0.12,0.24-0.2,0.24-0.24c0.24,0.04,0.36,0.12,0.36,0.24C144.52,114.12,144.48,114.16,144.48,114.23z M144.89,103.24
		l-0.06-0.18c-0.04,0-0.1,0.12-0.18,0.36C144.73,103.3,144.81,103.24,144.89,103.24z M145.31,113.82V114c0,0.12-0.06,0.18-0.18,0.18
		h-0.36C144.77,113.98,144.95,113.86,145.31,113.82z M145.61,102.41c-0.36,0.36-0.61,0.54-0.77,0.54c0.08,0.08,0.14,0.12,0.18,0.12
		C145.41,102.79,145.61,102.57,145.61,102.41z M145.78,103.6l-0.24,0.24h-0.12c0-0.2,0.1-0.34,0.3-0.42L145.78,103.6z
		 M146.38,101.76c-0.24,0.04-0.36,0.16-0.36,0.36c-0.12,0-0.24,0.1-0.36,0.3c0.24-0.12,0.36-0.22,0.36-0.3h0.12
		C146.22,102.11,146.3,102,146.38,101.76z M145.84,113.11l-0.18,0.12v0.18h0.12C145.86,113.4,145.88,113.31,145.84,113.11z
		 M146.56,112.87h-0.36c-0.12,0-0.18,0.06-0.18,0.18h0.36C146.5,113.05,146.56,112.99,146.56,112.87z M146.85,101.28
		c-0.28,0.12-0.42,0.26-0.42,0.42h0.3c-0.04-0.12,0-0.24,0.12-0.36V101.28z M147.15,101.05l-0.18,0.06v0.18
		C147.01,101.28,147.07,101.2,147.15,101.05z M147.74,100.39h-0.06c-0.24,0.12-0.36,0.22-0.36,0.3v0.18
		C147.61,100.59,147.74,100.43,147.74,100.39z M147.98,110.73c-0.04,0-0.06,0.1-0.06,0.3C147.96,110.99,147.98,110.89,147.98,110.73
		z M148.22,98.97h0.12l0.12-0.24h-0.12L148.22,98.97z M148.64,99.56h-0.3v0.06c0,0.12,0.06,0.18,0.18,0.18L148.64,99.56z
		 M148.75,98.37c-0.08,0-0.16,0.1-0.24,0.3v0.06c0.08,0,0.16-0.08,0.24-0.24V98.37z M156.83,114.89c0-0.04-0.04-0.06-0.12-0.06
		l-0.06,0.24h0.06L156.83,114.89z M157.07,112.1l-0.12,0.06v0.36h0.12V112.1z M157.25,110.73l-0.12-0.06v0.3
		C157.25,110.89,157.29,110.81,157.25,110.73z M157.37,109.9l-0.12-0.06l-0.06,0.42c0,0.04,0.02,0.06,0.06,0.06L157.37,109.9z
		 M157.61,95.82h-0.18v0.42h0.18V95.82z M159.75,91.84l0.06,0.71c0.4-0.48,0.91-1.21,1.54-2.2h0.12v-0.18h-0.12
		c-0.4,0.51-0.91,1.01-1.54,1.49L159.75,91.84z M161.83,95.79c0.08-0.18,0.16-0.39,0.24-0.62h0.12c0.12,0.04,0.18,0.1,0.18,0.18
		c0,0.16-0.44,0.99-1.31,2.5c-0.12,0.04-0.22-0.02-0.3-0.18c0.51-0.87,0.77-1.41,0.77-1.6C161.65,96.06,161.75,95.97,161.83,95.79z
		 M164.38,91.84h-0.18c-0.12,0-0.42,0.59-0.89,1.78l0.3-0.24c0.08,0.08,0.16,0.12,0.24,0.12l-0.06-0.18l-0.06-0.54
		c0.08,0,0.17-0.06,0.27-0.18c0.1-0.12,0.17-0.28,0.21-0.48C164.32,92.13,164.38,92.03,164.38,91.84z M165.21,90.17h-0.12
		c0,0.16-0.08,0.24-0.24,0.24v0.18h0.18C165.03,90.47,165.09,90.33,165.21,90.17z M174.78,105.15l-0.06-0.12v-0.83l-0.12-0.65h0.06
		c0-0.08-0.02-0.12-0.06-0.12c0.12-1.27,0.16-2,0.12-2.2c-1.31,0.87-2.63,1.62-3.98,2.26c0,0.12-0.3,0.28-0.89,0.48l-1.49,1.01
		l-0.18,0.54c0.12,0.2,0.28,1.09,0.48,2.67c-0.04,0.04-0.08,0.06-0.12,0.06l0.18,0.59c0,0.24-0.04,0.36-0.12,0.36l0.12,0.12
		l0.06,0.59h-0.36v-0.18h-0.06v0.54l0.24-0.18c0.12,0.04,0.18,0.1,0.18,0.18l-0.12,0.06c0.16,0.24,0.24,0.59,0.24,1.07h0.12
		l0.54-0.36l0.18,0.06c1.27-0.63,2.55-1.19,3.86-1.66c0.75-0.12,1.13-0.3,1.13-0.53c0-0.24-0.02-0.36-0.06-0.36
		c0.04-0.4,0.05-0.81,0.03-1.25c-0.02-0.44-0.03-0.83-0.03-1.19c0-0.16-0.04-0.32-0.12-0.47
		C174.62,105.3,174.7,105.15,174.78,105.15z M168.6,110.55c-0.04-0.16-0.1-0.24-0.18-0.24v0.24H168.6z M168.6,110.67h-0.12
		l-0.06,0.42l0.18,0.06V110.67z M171.21,100.93c0.08,0.04,0.12,0.12,0.12,0.24c0.16-0.08,0.26-0.12,0.3-0.12
		c-0.08-0.08-0.12-0.16-0.12-0.24h-0.12L171.21,100.93z M172.88,99.8l-0.12,0.18c0.08,0,0.12,0.04,0.12,0.12h-0.3
		c0-0.2,0.06-0.3,0.18-0.3H172.88z M173.89,99.44c-0.32,0.16-0.5,0.26-0.53,0.3l0.06,0.18l-0.18,0.06l-0.06-0.3l0.65-0.36
		L173.89,99.44z M185.17,118.99l0.06-0.06h-0.06l-0.06,0.18l0.06,0.24l0.06-0.06C185.24,119.17,185.21,119.07,185.17,118.99z
		 M185.95,102.35c-0.04-0.04-0.1-0.18-0.18-0.42c-0.04,0.16-0.16,0.24-0.36,0.24v0.18c0.12,0,0.18,0.12,0.18,0.36h0.12
		C185.83,102.71,185.91,102.59,185.95,102.35z M189.57,96.77c0-0.04-0.04-0.06-0.12-0.06v0.24h0.06L189.57,96.77z"/>
	<path d="M231.99,119.11c-0.12-0.32-0.34-0.54-0.65-0.65c-0.24,0-0.57,0.06-1.01,0.18c-0.16-0.12-0.32-0.18-0.48-0.18
		c-0.24,0.55-0.42,0.83-0.53,0.83h-0.18c0-0.47,0.02-0.83,0.06-1.07c0-0.12-0.14-0.26-0.42-0.42c-0.12-0.4-0.24-0.97-0.36-1.72
		c-0.12,0-0.18-0.08-0.18-0.24l0.06-1.54l-0.06-0.42l0.3-1.31l-0.12-0.18l0.12-0.36c0-0.08-0.04-0.12-0.12-0.12
		c0.08-0.08,0.13-0.38,0.15-0.89c0.02-0.51,0.03-0.89,0.03-1.13l-0.06-0.18c0.08-0.51,0.14-0.83,0.18-0.95
		c-1.74,0.91-2.61,1.62-2.61,2.14c-0.12,0-0.26,0.26-0.42,0.77c-0.79,0.59-1.19,0.97-1.19,1.13c0,0.12-0.22,0.36-0.65,0.71
		c-0.63,0.83-1.27,1.45-1.9,1.84c-0.12,0.44-0.34,0.65-0.65,0.65h-0.36v-0.18c0.24,0,0.42-0.12,0.54-0.36l-0.89,0.12
		c-0.47-0.12-0.71-0.24-0.71-0.36c0-0.12,0.1-0.38,0.3-0.77l-0.18-0.12l-0.89,0.12l-0.06-0.18v-0.48c0.4-0.4,0.59-0.75,0.59-1.07
		c-0.28,0-0.69-0.24-1.25-0.71v-0.95c-0.12,0-0.28-0.1-0.47-0.3h-0.59c0-0.16,0.16-0.61,0.48-1.37c-0.08,0-0.12-0.12-0.12-0.36
		c0-0.12,0.5-0.44,1.49-0.95c0-0.08,0.24-0.3,0.71-0.65c0-0.12,0.18-0.32,0.54-0.59v-0.12l-0.18-0.36v-0.18
		c0.12-0.2,0.32-0.3,0.59-0.3l1.49,0.3c0.32-0.28,0.59-0.42,0.83-0.42c0,0.08,0.02,0.12,0.06,0.12c0-0.12,0.3-0.24,0.89-0.36
		l0.06-0.12l0.65,0.06c0.48,0,2.3-0.79,5.47-2.38l0.36-0.06l-0.42,0.42c0,0.04,0.02,0.06,0.06,0.06c0.75-0.28,1.13-0.48,1.13-0.59
		h-0.48l0.12-0.18l-0.54-0.71c0-0.2,0.04-0.3,0.12-0.3l-0.36-0.89l0.18-0.12l-0.18-0.83c0.12-0.2,0.18-0.36,0.18-0.48
		c0-0.16-0.08-0.55-0.24-1.19l0.12-0.36l-0.06-0.36c0-0.08,0.02-0.12,0.06-0.12l-0.3-3.74c0-0.51-0.04-0.81-0.12-0.89l0.12-0.36
		l-0.12-0.95c0.04-0.44,0.14-0.65,0.3-0.65h0.12c0.48,0.59,0.77,0.89,0.89,0.89v-0.47c0-0.44,0.24-0.85,0.71-1.25h0.06v0.59
		l0.83,0.95l1.31-0.95c0.2-0.28,0.65-0.57,1.37-0.89c0.87-0.87,1.82-1.6,2.85-2.2h0.3l-0.06-0.24c0.12,0,0.26-0.42,0.42-1.25
		c0.32-0.44,0.77-0.65,1.37-0.65c0.08,0.2,0.18,0.3,0.3,0.3c0.36-0.16,0.63-0.24,0.83-0.24c0.99,0.75,1.48,1.37,1.48,1.84
		c0.16,0,0.24,0.04,0.24,0.12l-0.06,0.18c0.08,0,0.24,0.28,0.48,0.83h0.06l-0.06,0.65c0.08,0,0.16,0.1,0.24,0.3l-0.06,0.36
		l0.18,0.71l-0.12,0.48l0.12,0.59c-0.44,0.67-0.65,1.13-0.65,1.37l0.06,0.54c-0.28,0.28-0.51,0.67-0.71,1.19
		c-1.7,1.86-2.59,2.79-2.67,2.79c-0.79,0.36-1.49,0.97-2.08,1.84c-0.24,0.12-0.38,0.26-0.42,0.42h0.3c0-0.2,0.39-0.5,1.19-0.89h0.24
		c0,0.2-0.38,0.54-1.13,1.01c0-0.08-0.04-0.12-0.12-0.12c0,0.16-0.12,0.24-0.36,0.24c0-0.04-0.04-0.06-0.12-0.06
		c-0.04,0.04-0.13,0.08-0.27,0.12c-0.14,0.04-0.29,0.1-0.45,0.18c0,0.24-0.36,0.51-1.07,0.83c-0.04,0.16-0.2,0.24-0.48,0.24
		c0-0.08-0.08-0.12-0.24-0.12v0.12h0.12l-0.06,0.47c1.15-0.47,1.8-0.79,1.96-0.95c2.73-1.46,4.18-2.2,4.34-2.2l1.78-1.07
		c0-0.12,0.08-0.18,0.24-0.18c0.04,0,0.06,0.04,0.06,0.12l0.36-0.12l-0.12-0.12l0.42-0.36c0-0.12-0.04-0.18-0.12-0.18
		c-0.08,0-0.12,0.04-0.12,0.12h0.18c0,0.12-0.58,0.28-1.72,0.47c0-0.12,0.51-0.42,1.54-0.89v-0.06c-0.12,0-0.18-0.06-0.18-0.18
		l0.18-0.12h0.12v0.18c0.2,0,0.3-0.06,0.3-0.18h-0.18v-0.18c0.28-0.28,0.42-0.51,0.42-0.71c-0.04-0.04-0.06-0.12-0.06-0.24
		c0.48-0.08,0.71-0.59,0.71-1.54c0-0.51,0.04-0.97,0.12-1.37c0-0.08-0.04-0.12-0.12-0.12l0.12-0.48c0-1.03,0.02-1.56,0.06-1.6
		l-0.06-0.18l0.06-0.24l-0.06-0.18c0.04-0.08,0.06-0.18,0.06-0.3l-0.06-0.24l0.12-0.65l-0.06-0.54c0-0.24,0.04-0.71,0.12-1.43
		c-0.08-0.32-0.12-0.53-0.12-0.65c0.08-0.63,0.12-1.03,0.12-1.19h-0.12v-0.06c0.08-0.24,0.12-0.4,0.12-0.47
		c-0.12,0-0.18-0.06-0.18-0.18l0.3-0.42c-0.12-0.2-0.18-0.38-0.18-0.53c0.36-0.55,0.63-0.87,0.83-0.95l0.18,0.12
		c0.08,0,0.38-0.14,0.89-0.42c0.16,0,0.34,0.3,0.53,0.89h0.12l0.24-0.06c0.87,1.15,1.31,1.98,1.31,2.5c0,0.08,0.18,0.42,0.53,1.01
		l-0.06,0.12l0.06,0.59c-0.32,0.4-0.61,1.43-0.89,3.09c0,0.08,0.04,0.12,0.12,0.12l-0.36,3.74c0.44-0.2,1.68-0.91,3.74-2.14
		c0.36,0,0.79-0.36,1.31-1.07h0.36c0,0.83,0.32,1.25,0.95,1.25c0,0.16,0.22,0.95,0.65,2.38v0.06c-0.12,0-0.22,0.32-0.3,0.95h-0.12
		l0.12,0.59c0,0.59-0.36,1.11-1.07,1.54c-0.99,0.16-1.92,0.36-2.79,0.59c-0.2,0-0.3-0.04-0.3-0.12c-2.46,0.48-3.68,0.91-3.68,1.31
		c0,0.32-0.16,0.51-0.47,0.59l-0.71-0.59c-0.59,0.2-1.03,0.44-1.31,0.71h-0.12v-0.12c0.16,0,0.24-0.06,0.24-0.18h-0.12v-0.24
		l0.89-0.3v-0.18c-0.16,0-0.4-0.04-0.71-0.12c-0.44,0-1.13,0.42-2.08,1.25c-1.11,0.67-2.08,1.13-2.91,1.37
		c0,0.12-0.59,0.46-1.78,1.01c-0.28,0.28-0.61,0.44-1.01,0.48c-0.4,0.47-1.05,0.85-1.96,1.13c0,0.04-0.16,0.22-0.48,0.53
		c0,0.08,0.02,0.12,0.06,0.12c2.57-1.07,5.64-2.59,9.21-4.58h0.3c-0.36,0.48-2.08,1.49-5.17,3.03c0,0.16-0.4,0.38-1.19,0.65
		c-1.19,0.71-2.67,1.51-4.46,2.38l-3.39,1.96c-0.24,0.36-0.57,0.59-1.01,0.71c0.16,0.32,0.24,0.53,0.24,0.65l0.42-0.06
		c0,0.16,0.2,0.44,0.59,0.83c0.04,0.24,0.09,0.44,0.15,0.59c0.06,0.16,0.13,0.24,0.21,0.24l-0.06-0.12c0-0.12,0.02-0.18,0.06-0.18
		c-0.2-0.47-0.3-0.89-0.3-1.25c0.08,0,0.28-0.1,0.59-0.3l0.24,0.18c1.31-0.36,2.69-1.17,4.16-2.44c1.23-0.95,2.12-1.52,2.67-1.72
		c0.04,0,0.06,0.02,0.06,0.06l0.42-0.06c0.04,0,0.18,0.04,0.42,0.12c0.79-0.28,1.19-0.69,1.19-1.25c0.12-0.36,0.22-0.53,0.3-0.53
		c0.04-0.04,0.12-0.1,0.24-0.18c0.12-0.08,0.26-0.2,0.42-0.36h0.48c0.48,0.36,0.77,0.54,0.89,0.54l0.24-0.06
		c0.83,0.59,1.25,1.13,1.25,1.6l-0.12,0.24l0.59,2.38c-0.08,0.2-0.16,0.3-0.24,0.3c0.08,0.04,0.12,0.16,0.12,0.36
		c-0.51,0.87-0.77,1.37-0.77,1.49c-0.12,0.24-0.18,0.44-0.18,0.59h0.24c0,0.28-0.26,0.75-0.77,1.43c0,0.36-0.22,0.69-0.65,1.01
		c-1.11,1.27-2.67,2.44-4.69,3.51c-1.31,0.75-2.85,1.96-4.63,3.62c-0.16,0-0.34,0.12-0.54,0.36
		C232.27,119.76,231.99,119.54,231.99,119.11z M217.79,112.51c0-0.08,0.12-0.18,0.36-0.3h0.18v0.18c0,0.04-0.1,0.16-0.3,0.36
		C217.87,112.75,217.79,112.67,217.79,112.51z M223.85,95.4c-0.24-0.24-0.63-0.38-1.19-0.42c0-0.08-0.08-0.2-0.24-0.36l0.18-0.77
		c-0.52-0.04-0.77-0.14-0.77-0.3v-0.53c0.2-0.32,0.4-0.48,0.59-0.48c0-0.24-0.24-0.55-0.71-0.95h-0.65v-0.12
		c0.16-0.2,0.24-0.48,0.24-0.83l-0.71-0.95c-0.47-0.08-0.71-0.2-0.71-0.36v-0.12l0.54-1.31c0.24-0.36,0.95-0.77,2.14-1.25
		c0.2,0,0.42-0.2,0.65-0.59v-0.12c-0.16-0.2-0.24-0.5-0.24-0.89l0.24-0.12c0.55,0.08,1.21,0.12,1.96,0.12
		c0-0.08,0.08-0.14,0.24-0.18c0.16,0.04,0.24,0.1,0.24,0.18l1.07-0.18v0.06c1.11-0.24,1.78-0.4,2.02-0.48v0.06l3.09-0.83l5.17-2.08
		c2.42-1.19,4.16-1.98,5.23-2.38h0.18v0.18c-0.75,0.24-1.13,0.46-1.13,0.65c-0.04-0.04-0.16-0.06-0.36-0.06v0.12l0.18-0.06h0.12
		c0,0.12-1.13,0.75-3.39,1.9l-1.13,0.59c0,0.12,0.04,0.18,0.12,0.18c3.29-1.5,6.08-2.67,8.38-3.51l0.77-0.47v-0.06h-0.18
		c-0.16,0.12-0.3,0.18-0.42,0.18v-0.12c0.28-0.24,0.42-0.38,0.42-0.42v-0.18l-1.07,0.24c-0.12,0-0.18-0.04-0.18-0.12l2.85-1.19
		c0.87-0.47,1.47-0.73,1.78-0.77v-0.54c0.2-0.32,0.63-0.47,1.31-0.47c0.16,0.12,0.36,0.18,0.59,0.18c0.28,0,0.5-0.14,0.65-0.42
		c0.32,0.4,0.47,0.69,0.47,0.89l-0.12,0.42c0.04,0.04,0.14,0.18,0.3,0.42c0.16,0.24,0.34,0.55,0.53,0.95c0,0.08-0.02,0.12-0.06,0.12
		c0.04,0.2,0.06,0.42,0.06,0.65c-0.32,0.91-0.59,1.51-0.83,1.78c-0.28,0.28-0.58,0.42-0.89,0.42l-0.95-0.18l-0.71,0.06v-0.06
		l-0.18,0.06c-0.71,0-1.07-0.02-1.07-0.06l-0.12,0.06c-0.28,0-0.46-0.02-0.53-0.06c-0.04,0.04-0.14,0.06-0.3,0.06
		c0-0.2-0.08-0.3-0.24-0.3c-1.11,0.48-1.7,0.75-1.78,0.83c-0.4,0.28-1.39,0.75-2.97,1.43c-0.32,0.24-1.33,0.81-3.03,1.72l-2.08,1.01
		c-0.28,0.24-0.51,0.36-0.71,0.36c-0.16,0.28-0.36,0.42-0.59,0.42c-0.08,0.08-0.32,0.25-0.71,0.5c-0.4,0.26-0.95,0.56-1.66,0.92
		c0,0.08-0.36,0.32-1.07,0.71l-1.07,0.77c-1.07,0.83-1.68,1.25-1.84,1.25c-1.58,1.47-2.4,2.32-2.44,2.55
		c-0.28,0-0.69,0.46-1.25,1.37c-0.79,0.32-1.19,0.67-1.19,1.07h-0.47v-0.24c-0.16,0-0.24,0.14-0.24,0.42H223.85z M229.32,108.89
		l0.06-0.48h-0.06c-0.36,0.16-0.54,0.28-0.54,0.36c0.36,0.12,0.54,0.3,0.54,0.53h0.18L229.32,108.89z M246.19,128.32
		c0-0.32-0.34-0.48-1.01-0.48c-0.04,0.04-0.16,0.06-0.36,0.06c0.55-0.48,0.83-0.75,0.83-0.83l-0.18-0.06l-0.95,0.06
		c-0.24-0.08-0.38-0.12-0.42-0.12c0-0.28-0.02-0.51-0.06-0.71l0.3-0.12l0.18,0.12c0.16-0.08,0.3-0.12,0.42-0.12v-0.18
		c-1.19-0.32-1.84-0.48-1.96-0.48l-3.68,0.48c-1.15,0-2.93-0.51-5.35-1.54c-0.52-0.12-0.77-0.3-0.77-0.53h0.36l0.24,0.24h0.06
		c-0.44-0.44-1.25-0.99-2.44-1.66c0-0.16-0.16-0.26-0.48-0.3c0-0.12-0.04-0.18-0.12-0.18l-0.18,0.12l-0.3-0.48l0.18-0.06
		c0.12,0.08,0.77,0.34,1.96,0.77v-0.18c-0.24,0-0.95-0.3-2.14-0.89v-0.18c0.48,0.16,0.81,0.24,1.01,0.24h0.48
		c0,0.2,0.12,0.36,0.36,0.48l0.18-0.06c0.24,0,0.63,0.14,1.19,0.42l0.18-0.06c0.32,0,0.47,0.1,0.47,0.3h0.06v-0.18h0.12
		c0.28,0.28,0.67,0.42,1.19,0.42l-0.06-0.18c0.16,0,0.26,0.12,0.3,0.36l0.24-0.18l0.36,0.24v-0.06c-0.04,0-0.06-0.06-0.06-0.18h0.06
		l0.24,0.24h0.42c0-0.2,0.22-0.3,0.65-0.3l0.24,0.24h0.18l-0.12-0.24c0.79-0.28,1.61-0.69,2.47-1.25c0.85-0.55,1.4-0.91,1.63-1.07
		c0.2-0.16,0.57-0.57,1.13-1.25c0.4,0,0.77-0.61,1.13-1.84c0.44,0,0.65-0.16,0.65-0.48c0-0.2,0.16-0.73,0.48-1.6
		c0.2-1.11,0.3-1.76,0.3-1.96l-0.12-0.18c0.08-0.36,0.22-1.19,0.42-2.5c0-0.04-0.04-0.06-0.12-0.06c0.08-0.08,0.16-0.81,0.24-2.2
		l-0.12-0.18c0.12-0.2,0.18-0.38,0.18-0.54c0-0.87-0.02-1.37-0.06-1.48c0.04-0.12,0.06-0.55,0.06-1.31l0.06-0.18l-0.12-0.06
		c0.04-0.63,0.18-1.15,0.42-1.54l-0.12-0.24c0.04-0.16,0.1-0.24,0.18-0.24c-0.12-0.2-0.18-0.42-0.18-0.65
		c0.12,0,0.32-0.28,0.59-0.83c0.79-0.28,1.29-0.42,1.49-0.42h0.12c0,0.24,0.38,0.73,1.13,1.49c0.24,0.24,0.44,0.65,0.59,1.25
		c0.12,0,0.3,0.26,0.54,0.77l-0.12,0.24c0.48,0.52,0.71,0.87,0.71,1.07l-0.06,0.18c0.32,0.4,0.48,1.7,0.48,3.92l0.12,0.18
		c-0.08,0.08-0.12,0.18-0.12,0.3l0.12,1.13l-0.12,0.24c0.08,1.11,0.14,1.72,0.18,1.84c-0.04,0.04-0.06,0.22-0.06,0.54l0.12,0.24
		l-0.12,0.83l0.06,0.42l-0.06,0.53l0.06,0.89c-0.04,0.47-0.1,0.71-0.18,0.71l0.12,0.65c0,0.48-0.04,0.95-0.12,1.43l0.12,0.18
		l-0.12,1.37l0.12,0.83c-0.08,0.08-0.12,0.2-0.12,0.36l0.12,0.12c-0.32,1.35-0.5,2.04-0.54,2.08c0,0.08,0.04,0.12,0.12,0.12
		c0,1.07-0.56,1.72-1.66,1.96c0,0.28-0.79,0.63-2.38,1.07c-0.16,0.24-0.56,0.54-1.19,0.89H246.19z M231.4,106.15v-0.06h-0.36
		c-0.16,0.16-0.28,0.24-0.36,0.24v0.24L231.4,106.15z M232.47,105.74c0-0.16,0.24-0.26,0.71-0.3c0.63-0.36,1.11-0.69,1.43-1.01
		c0.2,0,0.36-0.12,0.48-0.36l-0.59,0.24l-0.12-0.06c-1.7,0.79-2.55,1.31-2.55,1.54h0.12C231.97,105.76,232.15,105.74,232.47,105.74z
		 M236.8,112.39c0.87-0.99,1.46-2.04,1.78-3.15c0.12-0.08,0.4-0.69,0.83-1.84c0-0.08-0.04-0.12-0.12-0.12c0,0.04-0.1,0.2-0.3,0.48
		c0,0.08-0.3,0.34-0.89,0.77l-1.13,1.07v0.24c-0.12,0-0.48,0.3-1.07,0.89c-0.12,0-0.56,0.4-1.31,1.19c-0.24,0.16-0.71,0.26-1.43,0.3
		c-0.16-0.08-0.38-0.26-0.65-0.54c-0.08,0-0.22-0.06-0.42-0.18h-0.12c0.36,1.9,0.79,3.11,1.31,3.62
		C235.08,114.41,236.25,113.5,236.8,112.39z M232.88,123.74H233c0.08,0.08,0.12,0.16,0.12,0.24
		C232.96,123.98,232.88,123.9,232.88,123.74z M244.11,81.2c1.78-0.79,2.73-1.19,2.85-1.19c0-0.12-0.04-0.18-0.12-0.18l-0.59,0.06
		v-0.06c-0.83,0.28-1.86,0.71-3.09,1.31c-2.77,1.27-5.55,2.67-8.32,4.22c-0.08,0.12-0.36,0.22-0.83,0.3v0.12h0.18
		C239.66,83.16,242.96,81.64,244.11,81.2z M237.34,95.04c0.16-0.51,0.34-1.5,0.53-2.97c-0.04-0.08-0.06-0.18-0.06-0.3h-0.12
		c0,0.12-0.5,0.73-1.49,1.84c-0.63,0.44-1.21,1.13-1.72,2.08c-0.04,0-0.16,0.18-0.36,0.53c0.04,0.63,0.12,0.95,0.24,0.95
		C236.11,96.04,237.1,95.32,237.34,95.04z M237.81,101.67c0.55-0.3,0.97-0.48,1.25-0.56c0.59-0.44,1.92-1.15,3.98-2.14
		c0.2,0,0.3-0.08,0.3-0.24c0-0.04-0.04-0.06-0.12-0.06l-1.6,0.77h-0.12l-0.12-0.06c-0.08,0.2-0.22,0.32-0.42,0.36l-0.18-0.12
		c-0.08,0-0.18,0.14-0.3,0.42c-0.28,0.32-0.53,0.47-0.77,0.47l-0.06-0.18c0.2,0,0.3-0.08,0.3-0.24h-0.06l-1.25,0.65l0.06,0.18
		c0,0.16-0.14,0.24-0.42,0.24l-0.12-0.12h0.18v-0.18c-0.16,0.16-0.3,0.24-0.42,0.24c0.04,0.08,0.06,0.2,0.06,0.36
		c-0.08,0-0.42,0.18-1.01,0.53h-0.18v-0.24l-0.24,0.06v0.12c0.16,0,0.24,0.04,0.24,0.12l-0.24,0.12v0.18
		C236.84,102.19,237.26,101.97,237.81,101.67z M237.34,101.58v-0.12h-0.18l-0.12,0.18C237.12,101.6,237.22,101.58,237.34,101.58z
		 M239.42,125.29l-0.53-0.06v0.18c0.24,0,0.38,0.02,0.42,0.06L239.42,125.29z M239.48,98.67c0-0.16,0.24-0.3,0.71-0.42v0.06
		c0,0.12-0.1,0.24-0.3,0.36H239.48z M242.03,98.67v-0.18c-0.16,0.12-0.34,0.18-0.53,0.18v0.18
		C241.7,98.73,241.87,98.67,242.03,98.67z M243.49,97.78c0.34-0.16,0.68-0.34,1.04-0.54l0.18-0.24h-0.18
		c-1.31,0.71-1.98,1.15-2.02,1.31h0.06C242.84,98.11,243.15,97.94,243.49,97.78z M244.35,80.13l-0.18-0.06
		c-0.28,0-0.81,0.28-1.6,0.83v0.06C243.75,80.65,244.35,80.37,244.35,80.13z M243.22,98.31c-0.28,0.16-0.42,0.28-0.42,0.36
		C243.08,98.63,243.22,98.51,243.22,98.31z M243.64,78.59c0.16,0,0.32-0.08,0.47-0.24h0.06c0,0.16-0.16,0.3-0.47,0.42L243.64,78.59z
		 M244.94,99.02v-0.06c0.08,0,0.16-0.04,0.24-0.12v0.18H244.94z M247.5,129.03v-0.24c0.08,0,0.59-0.3,1.54-0.89
		c1.03-0.63,1.84-1.19,2.44-1.66h0.18l0.06,0.59c-0.36,0.47-1.09,0.95-2.2,1.43c-0.91,0.51-1.49,0.77-1.72,0.77H247.5z
		 M251.54,125.4l0.12-0.36h0.12v0.42c0,0.08-0.04,0.12-0.12,0.12C251.58,125.5,251.54,125.44,251.54,125.4z"/>
	<path d="M330.91,120.65l-2.5,0.65v0.06c0.71,0,1.45-0.08,2.2-0.24v0.06l0.18-0.06c0.36,0,1.19-0.08,2.5-0.24
		c0,0.16-0.62,0.36-1.84,0.59c0,0.04-0.04,0.06-0.12,0.06c-0.04,0-0.06-0.02-0.06-0.06l-2.02,0.42c-1.31,0.28-2.04,0.46-2.2,0.54
		c-0.28,0-0.42,0.12-0.42,0.36h-0.18v-0.18h-0.18v0.24l-0.24,0.06l-0.24-0.06c0,0.2-1.03,0.47-3.09,0.83
		c-0.83,0.24-1.31,0.5-1.43,0.77c-0.47,0.32-0.77,0.55-0.89,0.71c-0.36,0.32-1.25,0.55-2.67,0.71c-0.2,0.24-0.93,0.51-2.2,0.83
		c0,0.12-0.14,0.2-0.42,0.24h-2.02c-0.12,0-0.18-0.14-0.18-0.42h0.18v-0.12l-0.24-0.12c-0.12,0-0.2,0.04-0.24,0.12
		c-1.31-0.4-1.96-0.93-1.96-1.6c-0.08-0.16-0.26-0.3-0.53-0.42l-0.71-0.89c-0.12-0.08-0.4-0.44-0.83-1.07v-0.42
		c-1.11-1.58-1.66-2.67-1.66-3.27c0.12-0.12,0.24-0.67,0.36-1.66c0.08,0,0.16-0.12,0.24-0.36c0-0.08-0.02-0.12-0.06-0.12l0.06-0.59
		c0-0.51-0.08-0.93-0.24-1.25l0.06-0.18c0-0.51-0.71-2.38-2.14-5.58c-0.99-1.74-1.49-2.69-1.49-2.85c-0.16-0.28-0.33-0.57-0.5-0.89
		c-0.18-0.32-0.35-0.67-0.5-1.07c-0.12,0-0.34-0.42-0.65-1.25c-0.59-1.15-1.17-1.94-1.72-2.38c0-0.24-0.06-0.36-0.18-0.36
		c0,0.91-0.04,1.64-0.12,2.2l0.06,0.18c-0.04,0.2-0.06,0.44-0.06,0.71l0.06,0.18c-0.04,0.04-0.06,0.14-0.06,0.3l0.06,0.24
		c-0.12,0.63-0.18,1.07-0.18,1.31l0.12,1.6c-0.08,0.87-0.14,1.43-0.18,1.66c0,0.08,0.02,0.12,0.06,0.12l-0.06,0.48l-0.06,3.62
		c0.2,1.07,0.38,1.66,0.53,1.78h0.36c0,0.08-0.06,0.12-0.18,0.12c-0.16,0-0.28-0.04-0.36-0.12c0,0.56-0.24,0.83-0.71,0.83
		l-0.06,0.48c0.2,0.2,0.3,0.4,0.3,0.59l-0.24,1.01l0.24,1.49c-0.16,1.03-0.24,1.53-0.24,1.49c0.12,0.12,0.18,0.22,0.18,0.3
		c0.08-0.04,0.18-0.06,0.3-0.06v0.18c-0.04,1.27-0.32,1.94-0.83,2.02c-0.28,0-0.48-0.08-0.59-0.24c0.12-0.87,0.22-1.31,0.3-1.31
		c-0.12-0.83-0.4-1.25-0.83-1.25c-0.4,0-0.79-0.2-1.19-0.59c-0.36,0-0.59-0.16-0.71-0.48c-0.2,0-0.38-0.38-0.53-1.13
		c-0.16,0.04-0.36,0.06-0.59,0.06c-0.12,0-0.2-0.08-0.24-0.24c0.2-0.99,0.3-1.98,0.3-2.97c0.08-0.12,0.14-0.18,0.18-0.18l-0.06-0.18
		c0.16-0.36,0.4-1.58,0.71-3.68c0.04,0,0.08-0.1,0.12-0.3c-0.04-0.04-0.06-0.12-0.06-0.24l0.06-0.12l-0.06-0.18l0.36-1.9
		c-0.12,0-0.18-0.04-0.18-0.12l0.18-0.47l-0.18-0.06c0.12-0.75,0.26-1.31,0.42-1.66l-0.18-0.47c0.12-0.24,0.24-0.73,0.36-1.49
		c0-0.08-0.04-0.12-0.12-0.12c0.04-0.55,0.1-0.83,0.18-0.83l-0.06-0.12l0.06-0.42c0-0.71,0.02-1.09,0.06-1.13l-0.06-0.18l0.06-0.18
		l-0.06-0.06c0,0.4-0.1,0.59-0.3,0.59l0.06,0.12c-0.12,0.28-0.25,0.63-0.39,1.07c-0.14,0.44-0.31,0.93-0.51,1.49l0.12,0.24
		c-0.12,0-0.28,0.2-0.48,0.59c-0.08,0-0.12,0.06-0.12,0.18l0.06,0.18l-0.06,0.24c0.08,0,0.12,0.1,0.12,0.3
		c-0.2,0-0.36,0.3-0.47,0.89l-0.06,0.06h0.06l0.06-0.06v0.12c-0.32,0.36-0.48,0.57-0.48,0.65c0.2,0,0.3,0.06,0.3,0.18
		c-0.36,0.32-0.54,0.62-0.54,0.89h-0.12l0.12,0.18c0,0.08-0.12,0.24-0.36,0.48h0.18v0.12c-0.16,0.36-0.3,0.53-0.42,0.53
		c0-0.04-0.02-0.06-0.06-0.06v0.06c0.04,0.08,0.06,0.2,0.06,0.36c-0.28,0-0.42,0.04-0.42,0.12c0.08,0.08,0.12,0.16,0.12,0.24
		c-0.04,0.24-0.12,0.36-0.24,0.36c-0.04-0.04-0.08-0.06-0.12-0.06l0.12,0.18v0.24c-0.12,0-0.24,0.1-0.36,0.3
		c0.08,0.08,0.12,0.18,0.12,0.3c-0.04,0-0.14,0.14-0.3,0.42c-0.16,0-0.24,0.04-0.24,0.12l0.06,0.18c-0.12,0-0.18,0.02-0.18,0.06
		l0.12,0.24c-0.2,0-0.34-0.04-0.42-0.12l0.06,0.48c0,0.16-0.02,0.28-0.06,0.36l-0.18-0.12h-0.06l0.06,0.18v0.06
		c-0.08,0.24-0.24,0.51-0.47,0.83v0.06l0.18-0.06v0.06c-0.36,0.28-0.81,0.85-1.37,1.72c-0.32,0.55-0.83,1.13-1.54,1.72v-0.18h-0.06
		c-0.4,0.63-0.67,0.97-0.83,1.01c-0.16,0-0.28,0.22-0.36,0.65c-0.28,0.28-0.5,0.42-0.65,0.42c-0.24-0.4-0.55-0.65-0.95-0.77
		c-0.12-0.12-0.18-0.24-0.18-0.36c0.08,0,0.18-0.16,0.3-0.48h-0.06c-0.24,0.04-0.36,0.16-0.36,0.36h-0.18
		c-0.08,0-0.18-0.28-0.3-0.83c-0.12,0-0.18-0.06-0.18-0.18c0.12-1.03,0.24-1.54,0.36-1.54c0,0.2,0.1,0.36,0.3,0.48v-0.18h-0.18
		v-0.12c0.36,0,0.55-0.12,0.59-0.36c0.12,0,0.3-0.24,0.54-0.71c0.12-0.12,0.2-0.18,0.24-0.18v-0.12l-0.06-0.12
		c0.2,0,0.36-0.1,0.48-0.3v-0.3c0.16,0,0.38-0.32,0.65-0.95c0.28-0.63,0.59-1.43,0.95-2.38c0-0.12,0.12-0.49,0.36-1.13h0.18
		l-0.47,1.66h0.42v-0.59c0.2,0,0.36-0.28,0.47-0.83h0.06l0.24,0.12v-0.48l0.18,0.12h0.06c0-0.12-0.08-0.18-0.24-0.18
		c0.48-0.95,0.71-1.49,0.71-1.6c0-0.47,0.1-0.71,0.3-0.71v-0.47l0.47-0.83c0-0.12-0.02-0.18-0.06-0.18
		c0.32-0.71,0.55-1.37,0.71-1.96c0.24,0,0.36-0.04,0.36-0.12c-0.08-0.12-0.12-0.22-0.12-0.3c0.08-0.16,0.12-0.26,0.12-0.3
		l-0.12-0.18l0.36-0.59c-0.04,0-0.06-0.04-0.06-0.12c0.08,0,0.16-0.34,0.24-1.01l0.18-0.12l-0.06-0.18
		c0.63-2.18,0.95-4.06,0.95-5.64c-0.12-0.36-0.24-0.54-0.36-0.54c0,0.04-0.24,0.2-0.71,0.48c0,0.08-0.5,0.26-1.49,0.54
		c0,0.32-0.36,0.53-1.07,0.65v-0.06c0.79-0.75,1.23-1.13,1.31-1.13c0.12,0,0.36-0.2,0.71-0.59h0.12c-0.04-0.28-0.16-0.42-0.36-0.42
		v-0.12c0.47,0,0.85-0.16,1.13-0.47l-0.24-0.24h0.06l0.18,0.06c0.24-0.08,0.36-0.16,0.36-0.24c-0.12-0.08-0.22-0.12-0.3-0.12v-0.36
		c0.4-0.04,0.59-0.22,0.59-0.54h0.06l0.12,0.12c0.12-0.2,0.18-0.36,0.18-0.48c-0.24,0-0.4-0.04-0.48-0.12v0.24h0.18v0.18
		c-0.12,0-0.42,0.2-0.89,0.59h-0.06l0.06-0.18h-0.06c0,0.12-0.1,0.18-0.3,0.18c0-0.08,0.2-0.32,0.59-0.71v-0.18h-0.18l0.12,0.18
		c-0.12,0-0.24,0.1-0.36,0.3c-0.24,0-0.52,0.2-0.83,0.59c-0.32,0.32-0.62,0.48-0.89,0.48V93.2l0.65-0.65v-0.12l-0.18,0.12h-0.06
		c0-0.12,0.18-0.24,0.54-0.36v-0.06l-0.12,0.06h-0.18c0-0.2,0.14-0.3,0.42-0.3v0.06v0.06c0.04-0.04,0.14-0.06,0.3-0.06V91.9h-0.3
		v-0.06c0.51,0,0.77-0.14,0.77-0.42L292.59,91h0.18v0.24l0.83-0.54c0-0.08,0.04-0.12,0.12-0.12l-0.06-0.18v-0.12
		c0.08,0.08,0.12,0.14,0.12,0.18c0.24-0.08,0.36-0.16,0.36-0.24h-0.06l-0.18,0.06v-0.06c0.08-0.28,0.22-0.42,0.42-0.42l-0.06-0.12
		l0.36-0.18c-0.04-0.08-0.06-0.2-0.06-0.36c0.04,0,0.18-0.22,0.42-0.65c0.16-0.08,0.28-0.12,0.36-0.12c0,0.04-0.06,0.12-0.18,0.24
		h0.18c0-0.04,0.3-0.32,0.89-0.83h0.06h0.24v-0.06h-0.06l-0.18,0.06v-0.24h-0.18c0,0.12-0.24,0.34-0.71,0.65v-0.24
		c0.44-0.28,0.65-0.5,0.65-0.65l0.71,0.06l-0.06-0.18l0.59-0.71c0.16,0.08,0.28,0.12,0.36,0.12v-0.12
		c-0.08-0.08-0.12-0.16-0.12-0.24c-0.36,0.2-0.63,0.42-0.83,0.65c-0.04,0-0.06-0.06-0.06-0.18c0.75-0.95,1.23-1.45,1.43-1.49
		l0.06,0.18c-0.24,0.04-0.36,0.16-0.36,0.36c0.2-0.2,0.4-0.3,0.59-0.3l-0.06-0.12c0.08,0,0.12-0.06,0.12-0.18
		c-0.08,0-0.14-0.01-0.18-0.03c-0.04-0.02-0.08-0.03-0.12-0.03c0.08-0.24,0.3-0.36,0.65-0.36v-0.12h-0.18
		c0-0.12,0.61-1.11,1.84-2.97c0.48-0.75,0.93-1.72,1.37-2.91l-0.06-0.18v-0.12c0.32-0.2,0.47-0.63,0.47-1.31l0.3-0.24
		c-0.08-0.12-0.12-0.22-0.12-0.3l0.48-0.83c0.55-0.04,0.83-0.18,0.83-0.42c0.36,0,0.54,0.04,0.54,0.12
		c0.08-0.08,0.26-0.12,0.53-0.12l0.36,0.36c0.08-0.04,0.16-0.09,0.24-0.15c0.08-0.06,0.16-0.09,0.24-0.09c0,0.4,0.22,0.59,0.65,0.59
		c0.24,1.39,0.63,2.08,1.19,2.08c0,0.2,0.36,0.46,1.07,0.77c0.4,0.79,0.75,1.25,1.07,1.37c0.32,0.71,0.54,1.27,0.65,1.66
		c0.16,0.04,0.42,0.73,0.77,2.08l-0.06,0.59l0.06,0.3c-0.24,0.24-0.38,0.59-0.42,1.07c-0.44,0.28-0.73,0.42-0.89,0.42l-0.12-0.06
		c-0.12,0.04-0.26,0.06-0.42,0.06l-0.06-0.06c-0.52,0.2-1.31,0.73-2.38,1.6c-0.67,0-1.39,0.5-2.14,1.49l-0.36,0.06v-0.06
		c0.59-0.63,0.89-1.19,0.89-1.66c-0.2,0-0.3-0.04-0.3-0.12V87.5h-0.24l-0.89,0.71c-1.19,1.39-1.86,2.08-2.02,2.08
		c-0.08,0-0.12-0.02-0.12-0.06l0.48-0.59v-0.12c-0.24,0.12-0.4,0.18-0.48,0.18v-0.06l1.78-2.32V87.2c-0.16,0.24-0.4,0.42-0.71,0.53
		c-0.32,0.32-0.81,0.67-1.49,1.07c0,0.16-0.24,0.4-0.71,0.71c0,0.24-0.42,0.54-1.25,0.89v0.18h-0.42c-0.08,0-0.14,0.14-0.18,0.42
		c-0.24,0-0.65,0.3-1.25,0.89c-0.59,0.44-1.03,0.65-1.31,0.65l0.06,0.3c-0.44,0-0.75,0.16-0.95,0.48c0.36,0.79,0.71,1.39,1.07,1.78
		c0-0.12,0.06-0.18,0.18-0.18c0.44,0,0.65,0.16,0.65,0.47h0.71c0.36,0,0.75,0.22,1.19,0.65h0.06v-0.59
		c-0.16-0.36-0.36-0.71-0.59-1.07v-0.24l0.18-0.24c-0.2,0-0.61-0.55-1.25-1.66c0.08-0.24,0.18-0.36,0.3-0.36
		c0.2,0,0.44,0.12,0.71,0.36h0.24l-0.12-0.36c0.24-0.24,0.5-0.36,0.77-0.36c0.08,0.08,0.12,0.18,0.12,0.3h0.06l0.59-0.3
		c0.28,0,0.55,0.22,0.83,0.65h0.48c0,0.16,0.2,0.3,0.59,0.42c0,0.08-0.04,0.2-0.12,0.36c0.08,0.16,0.12,0.34,0.12,0.54h0.3
		c0.36,0,0.65,0.34,0.89,1.01c0.28,0,0.48,0.16,0.59,0.47l0.18-0.06l0.65,0.06c0,0.08-0.06,0.24-0.18,0.48
		c0.4,0.52,0.59,0.83,0.59,0.95c0.67,0.32,1.17,0.75,1.49,1.31c0.32,0,0.48,0.22,0.48,0.65c0,0.16-0.08,0.24-0.24,0.24v0.18
		c0,0.12,0.26,0.32,0.77,0.59c0,0.04,0.08,0.14,0.24,0.3l-0.06,0.42c0,0.04,0.16,0.26,0.47,0.65c0.32,1.27,0.51,2.02,0.59,2.26
		l-0.06,0.3c0,0.24,0.14,0.55,0.42,0.95c0.51,1.27,0.81,1.94,0.89,2.02c0.08,0,0.48-1.52,1.19-4.58c0-0.08-0.04-0.12-0.12-0.12
		c0.55-3.21,0.83-4.93,0.83-5.17c-1.27-0.12-1.98-0.26-2.14-0.42c-0.56-0.24-0.95-0.77-1.19-1.6l0.06-0.48
		c-0.12,0-0.18-0.02-0.18-0.06c0-0.08,0.04-0.12,0.12-0.12c-0.08-0.08-0.12-0.16-0.12-0.24l0.12-0.54l-0.12-0.54l0.77-0.59
		c0.32,0,0.63,0.08,0.95,0.24c0.44,0.12,0.73,0.18,0.89,0.18c0.99-0.28,2.89-1.19,5.7-2.73c2.18-1.43,3.41-2.28,3.68-2.55
		c0-0.12,0.38-0.51,1.13-1.19l0.12-0.42l-0.12-0.24c0.08,0,0.16-0.1,0.24-0.3c0-0.16-0.08-0.24-0.24-0.24
		c0-0.16,0.04-0.32,0.12-0.48l-0.24-0.59c0.51-0.4,0.77-0.63,0.77-0.71l-0.12-0.18c0.2-0.71,0.48-1.07,0.83-1.07
		c0-0.08,0.12-0.12,0.36-0.12c0.48,0,1.13,0.48,1.96,1.43c0.28,0,0.61,0.3,1.01,0.89l-0.12,0.59c0.16,0,0.4,0.58,0.71,1.72
		c0.32,0.83,0.55,1.58,0.71,2.26l-0.18,0.06l0.12,0.18v0.42c-0.12,0.12-0.22,0.48-0.3,1.07c-0.59,0.36-0.89,1.13-0.89,2.32
		c-0.08,0.55-0.16,0.83-0.24,0.83l0.06,0.06l-0.06,0.59l0.06,0.53l-0.06,0.18l0.06,0.06c-0.16,1.07-0.4,2.16-0.71,3.27
		c-0.08,0-0.16,0.18-0.24,0.53h-0.12l0.12,0.18c-0.4,1.47-0.75,2.32-1.07,2.55h-0.18v-0.36c-0.4,0-0.83,0.12-1.31,0.36
		c0-0.12-0.08-0.18-0.24-0.18c-0.87,0.75-1.82,1.29-2.85,1.6l-3.74,2.26c-0.99,0.87-1.49,1.39-1.49,1.54c0,0.36-0.1,0.58-0.3,0.65
		c-0.51,0-0.87-0.12-1.07-0.36c-0.08,0.4-0.12,0.79-0.12,1.19c0,0.24,1.23,0.54,3.68,0.89c0,0.12,0.34,0.2,1.01,0.24l0.42-0.06
		c0.16,0.16,0.42,0.24,0.77,0.24c0.08,0,0.2-0.04,0.36-0.12l0.18,0.12c0.36-0.08,0.61-0.16,0.77-0.24l0.48,0.12
		c0.43-0.08,0.65-0.2,0.65-0.36h0.24c0.04,0,0.1,0.08,0.18,0.24l1.54-0.18c0,0.12,0.12,0.18,0.36,0.18c0-0.43,0.28-0.65,0.83-0.65
		c0,0.08,0.1,0.12,0.3,0.12c0.28-0.2,0.54-0.3,0.77-0.3c0,0.12,0.08,0.18,0.24,0.18c0-0.12,0.49-0.51,1.49-1.19
		c1.46-2.18,2.2-3.86,2.2-5.05c0.08,0,0.12-0.12,0.12-0.36l-0.12-0.18l0.24-0.77l-0.12-0.06l0.3-1.54c0.12,0,0.18,0.12,0.18,0.36
		l0.18-0.12l-0.24-0.53c0.2,0,0.3-0.14,0.3-0.42l-0.12-0.06c0,0.16-0.1,0.24-0.3,0.24v-0.42c0.04-0.08,0.1-0.12,0.18-0.12
		c0.08,0.08,0.16,0.12,0.24,0.12l0.12-0.24l-0.12-0.18l0.24-0.54l-0.12-0.12l0.06-0.18l-0.06-0.53l0.06-0.24L330.2,96l0.06-0.12
		c-0.12-0.24-0.18-0.48-0.18-0.71h0.24v-0.18h-0.12c0-0.28,0.04-0.42,0.12-0.42c0,0.4,0.2,0.67,0.59,0.83
		c0,0.16-0.04,0.24-0.12,0.24l0.3,1.01c0,0.67,0.02,1.15,0.06,1.43l-0.06,0.12c0.24,1.19,0.36,1.92,0.36,2.2h-0.12l0.12,0.18
		c0,2.22,0.1,3.33,0.3,3.33v-0.18h0.24c0,0.2-0.04,0.34-0.12,0.42l0.12,0.71l-0.12,0.77c0.08,0.08,0.12,0.16,0.12,0.24
		c-0.16,0.12-0.24,0.26-0.24,0.42l0.24,0.06l0.42-0.65c0.08,0,0.16,0.04,0.24,0.12v-0.42c0.12,0,0.18,0.08,0.18,0.24
		c0,0.12-0.06,0.18-0.18,0.18c0.08,0.08,0.12,0.14,0.12,0.18l-0.36,1.37c0.08-0.04,0.2-0.06,0.36-0.06l-0.3,0.95
		c0.08,0.16,0.12,0.26,0.12,0.3l-0.12,0.42l0.12,0.06h-0.18v0.24c0.24,0,0.36,0.08,0.36,0.24c0.12,0,0.44-0.36,0.95-1.07l1.01-0.54
		h0.12c0,0.2-0.12,0.53-0.36,0.98c-0.24,0.46-0.53,1-0.89,1.63c-0.36,0.4-0.73,1.09-1.13,2.08c-0.12,0.04-0.26,0.26-0.42,0.65h0.24
		c-0.47,0.79-1.15,1.39-2.02,1.78c-0.28,0.24-0.58,0.5-0.92,0.8c-0.34,0.3-0.54,0.5-0.62,0.62c-0.79,0.36-1.25,0.54-1.37,0.54
		l-1.54-0.36c-0.04,0.04-0.11,0.09-0.21,0.15c-0.1,0.06-0.23,0.09-0.39,0.09c-0.12,0-0.34-0.06-0.65-0.18
		c-0.32-0.12-0.61-0.24-0.89-0.36l-0.24-0.06l-0.18,0.06c-0.2-0.08-0.38-0.12-0.54-0.12l-0.24,0.06c-1.03,0-1.9-0.38-2.61-1.13
		c-1.82-1.07-2.83-1.6-3.03-1.6c-0.28,0-0.56-0.22-0.83-0.65c-0.48-0.04-1.05-0.2-1.72-0.48c-0.24,0-0.4,0.08-0.47,0.24h-0.12
		c0,0.56,0.38,1.07,1.13,1.54c0,0.28,0.54,1.17,1.6,2.67c0.4,0.52,0.67,0.77,0.83,0.77c0,0.28,0.14,0.53,0.42,0.77
		c0,0.12,0.14,0.26,0.42,0.42l0.18-0.06c0.2,0,0.65,0.36,1.37,1.07c0.91,0.04,2.04,0.06,3.39,0.06c0.47,0,0.75-0.02,0.83-0.06
		l0.24,0.06c0.04,0,0.06-0.02,0.06-0.06l0.36,0.06l3.74-0.18v0.12l0.18-0.12l0.77,0.12c0-0.12,0.26-0.22,0.77-0.3
		c0-0.04,0.04-0.06,0.12-0.06c0.12,0,0.18,0.02,0.18,0.06c0.08-0.04,0.2-0.06,0.36-0.06v0.18c-0.12,0.04-0.4,0.06-0.83,0.06v0.12
		c0.28,0,0.5,0.02,0.65,0.06c1.62-0.12,2.65-0.24,3.09-0.36v0.12l2.08-0.59v0.42L330.91,120.65z M286.83,115.01h-0.48v0.3h0.24v0.12
		c-0.28,0.28-0.42,0.44-0.42,0.48l0.24,0.12C286.69,115.46,286.83,115.13,286.83,115.01z M289.03,112.04c-0.16,0-0.24-0.1-0.24-0.3
		h-0.3c-0.08,0-0.12,0.08-0.12,0.24l0.59,0.24L289.03,112.04z M289.44,110.97h-0.18c0,0.12-0.04,0.26-0.12,0.42l0.12,0.06
		C289.38,111.24,289.44,111.09,289.44,110.97z M289.44,96.89h-0.18v-0.18c0.12-0.2,0.34-0.3,0.65-0.3v0.18
		C289.8,96.59,289.64,96.69,289.44,96.89z M290.28,109.66h-0.24v0.24h0.18L290.28,109.66z M290.51,95.1h-0.12v-0.18
		c0.08,0,0.12-0.06,0.12-0.18h0.18C290.65,94.98,290.59,95.1,290.51,95.1z M291.28,94.63l-0.42,0.12v-0.24
		c0.08,0.04,0.22,0.06,0.42,0.06V94.63z M291.34,94.57l-0.24-0.06c0-0.12,0.06-0.18,0.18-0.18l0.06,0.18V94.57z M291.82,93.32
		l-0.24,0.06c0-0.2,0.06-0.3,0.18-0.3h0.06V93.32z M292.24,94.81h-0.18l-0.24,0.3h0.24c0-0.12,0.06-0.18,0.18-0.18V94.81z
		 M292.41,93.56v0.18h-0.24v-0.18H292.41z M293.42,90.47h-0.36c0.08-0.12,0.16-0.18,0.24-0.18h0.12V90.47z M294.14,90.89
		c0-0.12-0.06-0.18-0.18-0.18c-0.12,0.12-0.22,0.18-0.3,0.18V91h0.12L294.14,90.89z M294.79,93.92c-0.08,0-0.12-0.08-0.12-0.24
		c-0.16,0-0.36,0.14-0.59,0.42c0,0.16,0.06,0.24,0.18,0.24c0-0.16,0.02-0.24,0.06-0.24l0.42,0.3h0.06V93.92z M294.97,91h-0.06
		c-0.48,0.24-0.73,0.44-0.77,0.59h0.42C294.55,91.44,294.69,91.24,294.97,91z M294.26,90.71c0.04,0,0.14-0.1,0.3-0.3
		c-0.2,0-0.3,0.06-0.3,0.18V90.71z M294.37,94.63c-0.04-0.04-0.06-0.12-0.06-0.24h-0.06v0.18L294.37,94.63z M294.61,90.23h0.06
		c0.12,0,0.2-0.1,0.24-0.3C294.79,89.94,294.69,90.03,294.61,90.23z M295.5,90.29c-0.32,0.28-0.56,0.42-0.71,0.42
		c0-0.08-0.02-0.12-0.06-0.12l-0.06,0.18c0.08,0.08,0.18,0.12,0.3,0.12C295.32,90.69,295.5,90.49,295.5,90.29z M294.73,89.16
		l0.18,0.06c0-0.08,0.2-0.18,0.59-0.3v-0.18h-0.12l-0.24,0.06c0-0.04-0.02-0.06-0.06-0.06C294.85,88.98,294.73,89.12,294.73,89.16z
		 M294.97,89.88l0.54-0.24v-0.18l-0.59,0.42H294.97z M295.15,91.72l0.06-0.18v-0.36h-0.12l0.06,0.18v0.06c-0.16,0-0.24,0.1-0.24,0.3
		h0.06c0-0.08,0.04-0.12,0.12-0.12L295.15,91.72z M295.56,91.12L295.38,91v0.12c0.08,0.08,0.14,0.12,0.18,0.12
		c0.16,0,0.26-0.08,0.3-0.24l-0.18,0.12H295.56z M295.56,90.77h0.54c0-0.12-0.06-0.18-0.18-0.18c-0.08,0.08-0.2,0.12-0.36,0.12
		V90.77z M296.1,90.41h0.12c0.2-0.12,0.34-0.24,0.42-0.36c-0.08,0.04-0.26,0.06-0.54,0.06V90.41z M296.51,89.16h0.3l0.3-0.36h-0.06
		c0,0.16-0.18,0.24-0.53,0.24V89.16z M297.17,89.34l0.18,0.12l-0.06-0.3h-0.12V89.34z M300.85,91h0.06c0,0.2-0.14,0.38-0.42,0.54
		h-0.06C300.43,91.3,300.57,91.12,300.85,91z M301.39,90.41h0.12v0.18l-0.3,0.12C301.21,90.51,301.27,90.41,301.39,90.41z
		 M312.38,98.79h-0.12c0,0.32-0.08,0.71-0.24,1.19c0,0.08,0.04,0.12,0.12,0.12C312.3,99.74,312.38,99.3,312.38,98.79z M312.44,98.19
		h-0.06v0.36h0.06V98.19z M312.61,96.65h-0.06v0.48h0.06V96.65z M313.27,95.22c0.59,0.51,0.89,1.01,0.89,1.49
		c0.12,0,0.18,0.22,0.18,0.65c0,0.4-0.02,0.71-0.06,0.95c0,0.04,0.02,0.06,0.06,0.06l0.83-3.98h-0.18
		c-1.11,0.36-1.68,0.61-1.72,0.77V95.22z M313.98,100.27c0.08-0.08,0.12-0.2,0.12-0.36h-0.18l-0.06,0.77h0.06l-0.24,0.71
		c0.16,0,0.3-0.32,0.42-0.95L313.98,100.27z M314.16,99.02h-0.06v0.48h0.06V99.02z M316.71,100.93l0.12,0.18
		c0.55-0.2,1.27-0.65,2.14-1.37c0.12-0.2,0.18-0.34,0.18-0.42l-0.12-0.18l0.12-0.3c0.12,0,0.18,0.04,0.18,0.12l0.18-0.12h0.12
		l0.42,0.3c0-0.24-0.01-0.41-0.03-0.5c-0.02-0.1-0.03-0.17-0.03-0.21l0.42-4.04l-0.12-0.06l0.36-2.91l-0.06-0.24
		c0.04,0,0.06-0.02,0.06-0.06c-1.15,0.87-2.22,1.53-3.21,1.96l0.65,0.83c0,0.12-0.04,0.18-0.12,0.18c0,0.2,0.16,0.71,0.48,1.54
		C317.53,98.97,316.95,100.73,316.71,100.93z M327.05,122.61h0.3v0.18h-0.3V122.61z M330.26,94.57h-0.06v-0.59h0.12L330.26,94.57z
		 M332.87,108.77h0.12v0.42c-0.12,0-0.2,0.02-0.24,0.06c0-0.12-0.04-0.18-0.12-0.18C332.71,108.87,332.79,108.77,332.87,108.77z
		 M333.29,108.12v-0.24h0.18C333.47,108.04,333.41,108.12,333.29,108.12z"/>
	<path d="M400.66,126.47c0-0.32-0.51-0.54-1.54-0.65c-0.28-0.75-0.65-1.33-1.13-1.72l-0.18-0.36c0.04-0.12,0.06-0.2,0.06-0.24
		c-0.12,0-0.3-0.24-0.54-0.71c-0.04,0-0.28-0.18-0.71-0.54c-0.51-0.2-0.79-0.67-0.83-1.43h-0.18v-0.24c0.44,0.2,0.73,0.3,0.89,0.3
		h0.71v-0.42c-0.87-0.2-1.58-0.46-2.14-0.77c0.12-0.2,0.18-0.32,0.18-0.36c0.28,0.2,0.95,0.36,2.02,0.48
		c0.24-0.16,0.57-0.24,1.01-0.24c0-0.24,0.1-0.36,0.3-0.36l-0.24-0.3c0.08-0.28,0.12-0.51,0.12-0.71l-0.18-0.36l0.18-0.24
		c-0.47-1.54-1.05-2.69-1.72-3.45l0.12,0.24c0,0.32-0.48,0.57-1.43,0.77c-0.59,0.12-1.33,0.67-2.2,1.66
		c-1.07,0.95-1.7,1.57-1.9,1.84c-0.12,0-0.28,0.08-0.48,0.24c-0.32,0.04-1.07,0.56-2.26,1.54c-0.47,0.04-0.71,0.22-0.71,0.54
		l-0.06,0.06l-0.18-0.12c0,0.12-0.28,0.4-0.83,0.83c-0.4,0.28-0.59,0.53-0.59,0.77c-0.52,0.36-0.83,0.56-0.95,0.59
		c0,0.04-0.02,0.06-0.06,0.06c-1.07-0.12-1.6-0.32-1.6-0.59c-0.2-0.16-0.34-0.34-0.42-0.53l-0.24,0.06l-0.24,0.06
		c-0.04-0.16-0.16-0.32-0.36-0.47c-0.12,0.04-0.22,0.06-0.3,0.06c0-0.04-0.08-0.12-0.24-0.24l-0.18,0.3v0.12
		c0.12,0.55,0.18,0.85,0.18,0.89c0,0.79-0.16,1.19-0.48,1.19c-0.32-0.08-0.52-0.2-0.59-0.36c-0.12,0.04-0.22,0.06-0.3,0.06
		c-0.67-0.28-1.05-0.42-1.13-0.42s-0.3-0.18-0.65-0.53c-0.24,0-0.65-0.2-1.25-0.59c0-0.04,0.04-0.06,0.12-0.06
		c-0.04-0.16-0.2-0.83-0.47-2.02c-0.12-0.24-0.18-0.48-0.18-0.71c0.08,0,0.12-0.04,0.12-0.12c0-0.28-0.04-0.57-0.12-0.89h0.12
		c-0.32-1.07-0.54-1.58-0.65-1.54c-0.67,0.4-1.62,0.87-2.85,1.43c-0.28,0.24-0.47,0.69-0.59,1.37c-0.16,0.12-0.59,0.22-1.31,0.3
		c0-0.16-0.36-0.22-1.07-0.18c-1.82,0.91-3.19,1.72-4.1,2.44c-0.08,0-0.87,0.58-2.38,1.72l-0.77,0.53
		c-1.07,0.04-1.72-0.16-1.96-0.59c-0.44-0.36-0.65-0.95-0.65-1.78c0.16,0,0.69-0.48,1.6-1.43l0.71-0.48c0.04,0,0.06,0.02,0.06,0.06
		c-0.24,0.47-0.36,0.83-0.36,1.07c0.16-0.04,0.34-0.14,0.53-0.3v0.12c0.59-0.24,2.71-1.27,6.36-3.09c0.08,0,0.12-0.06,0.12-0.18
		c0-0.16-0.02-0.42-0.06-0.77c0-0.12,0.22-0.36,0.65-0.71v-1.19h-0.12c-0.83,0.48-1.25,0.87-1.25,1.19c0.16,0.24,0.24,0.5,0.24,0.77
		c0,0.12-0.18,0.3-0.53,0.54c-0.28-0.16-0.48-0.24-0.59-0.24l-0.77,0.12l-1.25-0.36c0-0.16-0.42-0.4-1.25-0.71
		c-0.55-0.28-0.83-0.63-0.83-1.07c-0.12,0-0.28-0.24-0.47-0.71c-0.16-0.08-0.42-0.59-0.77-1.54c-1.23-1.82-1.96-2.81-2.2-2.97
		c-0.91-0.95-1.78-1.5-2.61-1.66c-0.71-0.32-1.07-0.54-1.07-0.65l-0.18-0.18h0.18c0.79,0.08,1.25,0.12,1.37,0.12l0.3-0.18
		c1.98,0.44,2.97,0.75,2.97,0.95c0.59-0.04,1.7,0.59,3.33,1.9c0.16-0.04,0.26-0.02,0.3,0.06c2.53-1.23,3.84-1.84,3.92-1.84
		l1.49-0.83c0-0.12,0.06-0.22,0.18-0.3l-0.18-0.18c0-0.04,0.06-0.12,0.18-0.24c-0.12-0.32-0.2-0.63-0.24-0.95
		c-0.2,0-0.3-0.18-0.3-0.54l-0.83,0.06v-0.12h-1.01c-0.32,0-0.73-0.28-1.25-0.83c-0.32-0.12-0.48-0.3-0.48-0.54l0.24-0.3
		c-0.12-0.12-0.18-0.22-0.18-0.3c0.12-0.04,0.26-0.38,0.42-1.01c0.63-0.08,1.35-0.5,2.14-1.25c0.24,0.04,0.75-0.32,1.54-1.07
		c0.99-0.91,1.6-1.37,1.84-1.37c0,0.12-0.36,0.53-1.07,1.25l-1.37,1.37c0.83-0.24,1.25-0.46,1.25-0.65c0.12,0,0.22,0.02,0.3,0.06
		c0-0.2,0.46-0.5,1.37-0.89l0.3,0.06c1.15-0.47,2.59-1.09,4.34-1.84c0.16,0,0.24-0.06,0.24-0.18c-0.63-0.55-1.05-0.85-1.25-0.89
		c-0.16-0.04-0.73,0.16-1.72,0.59c-1.15,0.51-1.94,0.83-2.38,0.95c-0.48,0.04-0.91-0.12-1.31-0.48c-0.55,0-1.13-0.51-1.72-1.54
		v-0.24l0.36-0.12c0.2,0.12,0.54,0.18,1.01,0.18l0.24-0.18c0.12,0,0.18,0.02,0.18,0.06l1.01-0.42v-0.12c-0.08,0-0.16-0.02-0.24-0.06
		c-0.4,0.08-0.63,0.12-0.71,0.12c0-0.16-0.44-0.3-1.31-0.42c0-0.12-0.36-0.26-1.07-0.42c-0.24-0.12-0.38-0.34-0.42-0.65l-0.65-1.13
		v-0.48c-0.28,0.04-0.46-0.3-0.54-1.01c-0.2-0.67-0.35-1.01-0.45-1.01c-0.1,0-0.21-0.16-0.33-0.48c-0.2-0.2-0.38-0.3-0.53-0.3
		c-0.04-0.16-0.02-0.26,0.06-0.3c0-0.24-0.08-0.34-0.24-0.3c-0.04-0.4,0.16-0.59,0.59-0.59v-0.18c0-0.12-0.2-0.2-0.59-0.24
		l0.12-0.12c0-0.08-0.28-0.24-0.83-0.47c0-0.36,0.02-0.54,0.06-0.54c-0.12-0.48-0.26-0.73-0.42-0.77c-0.12,0.04-0.26,0.06-0.42,0.06
		c-0.04-0.08-0.06-0.18-0.06-0.3h0.3v-0.36c-0.71-0.75-1.27-1.29-1.66-1.6v-0.24c0.36,0,0.65,0.1,0.89,0.3h0.24
		c0-0.16,0.04-0.24,0.12-0.24h0.36c0.63,0.24,1.03,0.36,1.19,0.36c0.32,0.12,0.75,0.28,1.31,0.47h0.77c0.2,0,0.32,0.12,0.36,0.36
		l0.36-0.06l0.83,0.53l0.48-0.06c0.04,0.59,0.46,0.93,1.25,1.01c0,0.28,0.18,0.47,0.53,0.59h0.59c0,0.2,0.38,0.38,1.13,0.54
		l1.9-0.65c2.14-1.03,3.31-1.62,3.51-1.78c0.16-1.7,0.28-2.87,0.36-3.5c0-0.04-0.04-0.06-0.12-0.06c0.08-0.28,0.1-0.85,0.06-1.72
		l-0.65-0.83c0-0.12-0.2-0.24-0.59-0.36c0-0.24-0.32-0.44-0.95-0.59c-0.12-0.16-0.71-0.43-1.78-0.83l-0.83-0.77
		c0.04-0.12,0.12-0.18,0.24-0.18c0.63,0.08,0.95,0.16,0.95,0.24c0.04,0,0.06-0.04,0.06-0.12l0.36,0.06c0.08,0,0.28-0.06,0.59-0.18
		c0.63,0.08,1.62,0.34,2.97,0.77c0,0.12,0.32,0.2,0.95,0.24c1.31,0.83,2.14,1.43,2.5,1.78l0.89,1.19c0,0.04-0.02,0.06-0.06,0.06
		l0.42,0.83c0,0.16-0.36,0.79-1.07,1.9c0,0.08,0.04,0.12,0.12,0.12c1.62-0.55,2.46-0.89,2.5-1.01c0-0.2,0.2-0.53,0.59-1.01
		c0-0.12,0.3-0.2,0.89-0.24l0.24,0.18h0.42c0,0.2,0.34,0.4,1.01,0.59c0.83,0.28,1.47,0.54,1.93,0.8c0.46,0.26,0.78,0.39,0.98,0.39
		c0,0.16,0.22,0.28,0.65,0.36c0,0.2,0.06,0.36,0.18,0.48l0.18-0.12h0.06c0,0.08-0.02,0.3-0.06,0.65c0.32,0.12,0.59,0.51,0.83,1.19
		c-0.04,0.08-0.06,0.18-0.06,0.3c0.24,0.2,0.36,0.46,0.36,0.77c0,0.44-0.28,1.01-0.83,1.72c-0.12,0-0.22,0.14-0.3,0.42
		c-0.63,0.44-1.21,0.93-1.72,1.49l-3.21,1.07h-0.53c0,0.12-0.08,0.2-0.24,0.24l-0.3,0.06l-0.3-0.18c-1.15,0.4-1.82,0.79-2.02,1.19
		c-0.16,0-0.36,0.14-0.59,0.42c-0.24,0-0.34,0.08-0.3,0.24l0.48-0.06c0.83-0.04,1.8,0.42,2.91,1.37c0.51,0.36,0.77,0.57,0.77,0.65
		c0.12,0.2,0.45,0.4,1.01,0.59c0,0.04,0.38,0.36,1.13,0.95c0,0.12,0.2,0.34,0.59,0.65c0,0.28,0.22,0.54,0.65,0.77
		c0.28,0.71,0.61,1.33,1.01,1.84v0.24c0.12,0.08,0.18,0.16,0.18,0.24c0,0.4-0.02,0.59-0.06,0.59l0.12,0.12
		c-0.28,0.63-0.57,0.95-0.89,0.95c-0.2,0-0.51-0.1-0.95-0.3c0.04,0.36,0.38,0.71,1.01,1.07h0.06c1.31-0.51,2.51-0.93,3.62-1.25
		c0.44-0.87,0.93-1.31,1.49-1.31c0.04,0,0.06,0.02,0.06,0.06c0,0.04,0.22,0.14,0.65,0.3c0.12-0.04,0.2-0.06,0.24-0.06
		c0.32,0.04,0.47,0.14,0.47,0.3l0.95-0.12c0.55,0.28,1.01,0.44,1.37,0.47c0.12-0.04,0.2-0.06,0.24-0.06
		c0.04,0.2,0.55,0.51,1.54,0.95c0.04,0.16,0.18,0.38,0.42,0.65c0.04,0.16,0.02,0.24-0.06,0.24c0.08,0.08,0.12,0.16,0.12,0.24
		l-0.18,0.42l0.18,0.59c-0.16,0.91-0.38,1.37-0.65,1.37c0,0.16-0.63,0.95-1.9,2.38c-0.12,0-0.58,0.46-1.37,1.37
		c-0.59,0.48-1.07,0.71-1.43,0.71c0,0.24-0.5,0.42-1.49,0.54v-0.06c-0.12,0.04-0.24,0.08-0.36,0.12v-0.12
		c0.08-0.08,0.12-0.16,0.12-0.24c-0.28,0.16-0.5,0.26-0.65,0.3c0-0.12-0.16-0.24-0.48-0.36c-0.16,0.04-0.61,0.26-1.37,0.65
		c-0.36-0.12-0.54-0.28-0.54-0.48h-0.47c-0.63,0.36-0.93,1.09-0.89,2.2c-0.04,0-0.06,0.06-0.06,0.18c0,0.04,0.02,0.06,0.06,0.06
		c0-0.16,0.1-0.24,0.3-0.24c0,0.08-0.08,0.14-0.24,0.18l0.12,0.36c-0.08,0.55-0.12,0.93-0.12,1.13c0.32,0,0.63-0.2,0.95-0.59
		l0.12,0.06c0.36-0.44,0.69-0.65,1.01-0.65c0.28,0,0.55,0.02,0.83,0.06c0.2-0.12,0.4-0.18,0.59-0.18c0.08,0.2,0.18,0.3,0.3,0.3
		l0.47-0.12c0.51,0.16,0.83,0.3,0.95,0.42v-0.18c-0.08,0-0.71-0.55-1.9-1.66c-0.4-0.32-0.63-0.48-0.71-0.48v-0.24h0.3
		c0.2,0.16,0.71,0.36,1.54,0.59l0.36-0.12c0.87,0.36,1.96,1.01,3.27,1.96c0.04,0,0.2,0.18,0.48,0.54c0.24,0,0.75,0.53,1.54,1.6
		c0.16,0,0.55,0.5,1.19,1.49c-0.04,0.16-0.06,0.26-0.06,0.3c0.99,0.71,1.76,2.12,2.32,4.22l-0.06,0.18
		c0.44,0.87,0.67,1.72,0.71,2.55l-0.59,1.19c-0.28,0.08-0.67,0.34-1.19,0.77c-0.36,0-0.69-0.02-1.01-0.06
		c-0.28,0.08-0.54,0.22-0.77,0.42C401.32,127.11,400.9,126.91,400.66,126.47z M363.47,83.76c0.32,0.04,0.47,0.14,0.47,0.3
		C363.63,84.01,363.47,83.92,363.47,83.76z M370.48,112.33l0.12-1.13c-0.08-0.08-0.14-0.16-0.18-0.24c0.12-0.12,0.18-0.26,0.18-0.42
		c-0.44,0.04-1.35,0.46-2.73,1.25c-0.08,0-0.32,0.14-0.71,0.42c-0.12,0-0.22,0.16-0.3,0.47c-0.12,0-0.18,0.06-0.18,0.18
		c0.4,0.71,0.67,1.07,0.83,1.07h0.36C369.65,113.23,370.52,112.69,370.48,112.33z M383.2,107.16c0-0.04-0.02-0.2-0.06-0.47
		c0.08-0.04,0.18-0.06,0.3-0.06c-0.04-0.12-0.08-0.22-0.12-0.3h0.12c0.16,0.12,0.3,0.18,0.42,0.18c0.4,0,2.24-0.71,5.53-2.14v-0.24
		c-0.28-0.2-0.42-0.42-0.42-0.65c-0.32-0.08-0.61-0.45-0.89-1.13c-0.12,0-0.34-0.22-0.65-0.65c-0.16-0.04-0.26-0.2-0.3-0.48h0.12
		c0-0.08-0.52-0.26-1.54-0.53l-0.18,0.06c-0.48-0.08-0.73-0.26-0.77-0.54c-0.08-0.44-0.46-0.63-1.13-0.59
		c-0.04-0.04-0.1-0.06-0.18-0.06v-0.24c0.67-0.2,1.17-0.51,1.49-0.95c-0.04-0.12-0.02-0.18,0.06-0.18l-0.12-0.12
		c0-0.12,0.06-0.18,0.18-0.18l-0.24-0.54c-0.59,0.24-1.25,0.67-1.96,1.31l-6.3,2.73c-0.48,0.2-0.83,0.4-1.07,0.59
		c-0.16,0-1.09,0.5-2.79,1.49c-0.32,0.2-0.62,0.46-0.89,0.77c0,0.16,0.54,0.62,1.6,1.37c0,0.16,0.14,0.32,0.42,0.47
		c0.24,0,0.57-0.18,1.01-0.53h0.36c0-0.12,0.3-0.34,0.89-0.65c0.24,0,0.36,0.04,0.36,0.12l0.18-0.06l0.53,0.06
		c0.24-0.24,0.36-0.4,0.36-0.48c0.08,0,0.48,0.14,1.19,0.42c0.67,0.04,1.03,0.14,1.07,0.3l1.01-0.06c0.99,0.08,1.5,0.57,1.54,1.49
		c0.36,0.59,0.61,0.89,0.77,0.89C383.08,107.34,383.12,107.2,383.2,107.16z M373.21,99.8v-0.36c0.16,0,0.28-0.04,0.36-0.12v0.47
		H373.21z M374.64,115.3c0.4-0.04,0.69,0.06,0.89,0.3c0-0.12,0.1-0.24,0.3-0.36v-0.24c-0.2-0.36-0.48-0.63-0.83-0.83
		c0-0.08-0.32-0.4-0.95-0.95c-0.56,0.04-0.81,0.48-0.77,1.31l0.12,0.18c0,0.28-0.02,0.69-0.06,1.25h0.06
		C373.71,115.96,374.13,115.74,374.64,115.3z M374.17,110.31c0.12,0,0.2-0.14,0.24-0.42c0.04,0,0.32-0.57,0.83-1.72
		c-0.04-0.04-0.08-0.06-0.12-0.06c-1.11,0.63-1.66,1.21-1.66,1.72c0,0.44-0.02,0.65-0.06,0.65l0.06,0.12
		c-0.04,0.36-0.06,0.57-0.06,0.65C373.63,111.26,373.89,110.95,374.17,110.31z M377.85,93.32c0.36-2.57,0.54-3.96,0.54-4.16
		l-1.37,0.71l-0.06,0.18l-0.48-0.06h-0.24c-0.12,0.12-0.22,0.18-0.3,0.18l-0.42-0.06c0,0.12-0.16,0.24-0.48,0.36
		c-0.04,0.08-0.06,0.16-0.06,0.24h-0.42v-0.24c-0.44,0-0.63,0.12-0.59,0.36l-0.12,0.36l0.18,0.36l-0.06,0.3
		c0.08,0.75,0.28,1.78,0.59,3.09c-0.04,0-0.06,0.02-0.06,0.06h0.24C376.54,94.11,377.57,93.56,377.85,93.32z M374.34,98.73
		c-0.04-0.2,0-0.3,0.12-0.3h0.06c0.04,0.2,0,0.3-0.12,0.3H374.34z M382.25,118.75c0.67-0.59,1.01-0.95,1.01-1.07h0.18
		c0,0.16-0.06,0.3-0.18,0.42c0,0.2,0.2,0.32,0.59,0.36c0.04-0.08,0.06-0.2,0.06-0.36l0.48,0.06c0-0.12,0.16-0.22,0.47-0.3
		c0.2-0.2,0.3-0.38,0.3-0.53h0.24v0.12h0.06c1.58-0.63,2.38-1.11,2.38-1.43c-0.08-0.08-0.12-0.18-0.12-0.3l0.06-0.18
		c-0.08,0-0.12-0.04-0.12-0.12c0-0.28,0.18-0.42,0.53-0.42c0,0.04,0.02,0.06,0.06,0.06l0.36-2.2c-0.83,0.44-1.25,0.89-1.25,1.37
		c0.12,0.2,0.18,0.54,0.18,1.01c-0.12,0.28-0.22,0.42-0.3,0.42c-0.2,0-0.38-0.06-0.54-0.18l-0.47,0.12
		c-0.08-0.12-0.52-0.3-1.31-0.53c-0.59-0.24-0.89-0.51-0.89-0.83c-0.24,0-0.52-0.34-0.83-1.01l0.06-0.24l-0.06-0.12
		c0.04-0.4,0.08-0.65,0.12-0.77c-0.08-0.2-0.12-0.4-0.12-0.59l0.06-0.47c-0.08-0.59-0.32-1.45-0.71-2.55h0.18
		c-0.28-0.4-0.44-0.97-0.47-1.72c-0.4,0.75-1.47,2.1-3.21,4.04c-0.4,0.52-0.71,0.77-0.95,0.77c-0.56,0.52-1.17,0.91-1.84,1.19
		c0,0.12-0.26,0.26-0.77,0.42l-0.06,0.18l0.12,0.18c0.32,0,0.53-0.06,0.65-0.18c1.27,0.32,1.92,0.62,1.96,0.89
		c0.08,0,0.4,0.3,0.95,0.89c0.16,0.04,0.44,0.46,0.83,1.25c0.12,0,0.18,0.14,0.18,0.42h0.12l-0.06-0.24
		c-0.04-0.12-0.06-0.2-0.06-0.24h0.18l0.89,2.91L382.25,118.75z M378.86,92.61h-0.06l-0.06,0.36h0.18L378.86,92.61z M382.42,96.23
		c0-0.28,0.26-0.44,0.77-0.48c0.12-0.04,0.18,0,0.18,0.12c0.12-0.12,0.22-0.18,0.3-0.18v0.36l0.59-0.06v-0.12
		c-0.24-0.24-0.44-0.65-0.59-1.25c-0.12,0-0.3-0.2-0.54-0.59c-0.12-0.08-0.2-0.12-0.24-0.12c-1.66,0.91-2.52,1.51-2.55,1.78
		c-0.16,0.2-0.26,0.65-0.3,1.37c0.08-0.04,0.12-0.02,0.12,0.06C380.56,97.09,381.31,96.79,382.42,96.23z M383.02,90.59
		c0.63-0.99,1.09-1.88,1.37-2.67l0.83-2.26c0.12-0.04,0.18-0.08,0.18-0.12h-0.18c-1.78,0.71-2.67,1.29-2.67,1.72
		c0,0.16-0.14,0.32-0.42,0.48c-0.2,0.32-0.38,1.11-0.54,2.38c0.08,0.59,0.16,0.89,0.24,0.89c0.08-0.12,0.1-0.22,0.06-0.3l0.3-0.06
		v0.42C382.74,91.06,383.02,90.91,383.02,90.59z M383.91,90.35c-0.2,0.28-0.36,0.42-0.48,0.42v0.18h0.24
		C383.83,90.87,383.91,90.67,383.91,90.35z M384.21,117.74l0.18-0.06h0.06c0,0.16-0.04,0.24-0.12,0.24L384.21,117.74z
		 M388.96,110.31c0.36-1.86,0.54-3.13,0.54-3.8c-0.32,0.2-0.85,0.4-1.6,0.59c-0.55,0.2-1.13,0.44-1.72,0.71v0.06
		c-0.83,0-1.33-0.06-1.49-0.18v0.06c0.16,0.47,0.4,0.89,0.71,1.25c0.04,0.32,0.28,0.85,0.71,1.6c0,0.04,0.14,0.4,0.42,1.07
		L388.96,110.31z M392.7,108.12c0,0.08,0.04,0.12,0.12,0.12C392.82,108.16,392.78,108.12,392.7,108.12c0-0.2,0.55-1.15,1.66-2.85
		c0-0.16,0.12-0.42,0.36-0.77h-0.12c-0.79,0.28-1.19,0.53-1.19,0.77c0,0.08-0.26,0.62-0.77,1.6c-0.36,1.11-0.53,1.72-0.53,1.84h0.06
		C392.25,108.71,392.42,108.51,392.7,108.12z M393.41,108.41v-0.12h-0.12v0.12l-0.18-0.06c-0.2,0-0.36,0.08-0.48,0.24
		c0,0.08,0.04,0.12,0.12,0.12C392.84,108.71,393.06,108.61,393.41,108.41z"/>
</g>
</svg>
